<?xml version="1.0" encoding="utf-8"?>
<!-- Generator: Adobe Illustrator 16.0.0, SVG Export Plug-In . SVG Version: 6.00 Build 0)  -->
<!DOCTYPE svg PUBLIC "-//W3C//DTD SVG 1.1//EN" "http://www.w3.org/Graphics/SVG/1.1/DTD/svg11.dtd">
<svg version="1.1" id="图层_1" xmlns="http://www.w3.org/2000/svg" xmlns:xlink="http://www.w3.org/1999/xlink" x="0px" y="0px"
	 width="155.91px" height="14.17px" viewBox="0 0 155.91 14.17" enable-background="new 0 0 155.91 14.17" xml:space="preserve">
<g>
	<g>
		<path fill="#8E8E8E" d="M150.078,5.5h-0.648c0-1.61-1.305-2.915-2.915-2.915S143.6,3.891,143.6,5.5h-0.648
			c0-1.968,1.596-3.563,3.563-3.563S150.078,3.533,150.078,5.5L150.078,5.5z M146.515,12.303c-1.968,0-3.563-1.596-3.563-3.563
			V6.148h0.648v2.591c0,1.61,1.305,2.915,2.915,2.915s2.915-1.305,2.915-2.915V6.148h0.648v2.591
			C150.078,10.707,148.482,12.303,146.515,12.303L146.515,12.303z M146.515,12.303"/>
		<rect x="146.19" y="3.881" fill="#8E8E8E" width="0.647" height="2.591"/>
	</g>
	<g>
		<path fill="#8E8E8E" d="M129.23,2.214h-22.539c-0.409,0-0.741,0.332-0.741,0.74v8.827c0,0.408,0.332,0.74,0.741,0.74h22.539
			c0.408,0,0.74-0.332,0.74-0.74V2.955C129.971,2.546,129.639,2.214,129.23,2.214z M129.576,11.781c0,0.191-0.154,0.346-0.346,0.346
			h-22.539c-0.191,0-0.347-0.154-0.347-0.346V2.955c0-0.19,0.155-0.346,0.347-0.346h22.539c0.191,0,0.346,0.156,0.346,0.346V11.781z
			"/>
		<path fill="#8E8E8E" d="M111.75,7.301c-0.198-0.09-0.563-0.195-1.094-0.315s-0.859-0.237-0.985-0.352
			c-0.128-0.115-0.192-0.261-0.192-0.438c0-0.205,0.091-0.379,0.271-0.524s0.469-0.217,0.864-0.217c0.38,0,0.667,0.08,0.86,0.239
			c0.195,0.159,0.309,0.395,0.342,0.708l0.627-0.047c-0.012-0.29-0.092-0.549-0.242-0.778c-0.15-0.229-0.365-0.403-0.646-0.521
			c-0.279-0.118-0.603-0.177-0.968-0.177c-0.333,0-0.635,0.056-0.906,0.168c-0.272,0.112-0.479,0.277-0.621,0.494
			c-0.141,0.217-0.212,0.45-0.212,0.699c0,0.227,0.058,0.432,0.174,0.615s0.292,0.336,0.527,0.459
			c0.182,0.097,0.499,0.2,0.953,0.309s0.747,0.189,0.88,0.241c0.206,0.079,0.354,0.176,0.444,0.291
			c0.09,0.116,0.135,0.252,0.135,0.406c0,0.152-0.047,0.294-0.14,0.423c-0.094,0.13-0.235,0.231-0.426,0.306
			c-0.191,0.073-0.412,0.111-0.661,0.111c-0.28,0-0.533-0.049-0.758-0.147c-0.225-0.097-0.39-0.226-0.497-0.384
			c-0.106-0.158-0.175-0.361-0.203-0.608l-0.617,0.054c0.009,0.33,0.1,0.627,0.271,0.889s0.408,0.457,0.711,0.588
			c0.302,0.13,0.676,0.195,1.123,0.195c0.354,0,0.67-0.064,0.951-0.194c0.283-0.129,0.499-0.31,0.649-0.542s0.226-0.48,0.226-0.743
			c0-0.265-0.068-0.499-0.205-0.702C112.25,7.601,112.037,7.433,111.75,7.301z"/>
		<path fill="#8E8E8E" d="M115.775,6.399c-0.195-0.104-0.426-0.157-0.69-0.157c-0.432,0-0.788,0.164-1.071,0.492V4.963h-0.606v4.939
			h0.606V7.944c0-0.281,0.033-0.501,0.102-0.66c0.066-0.16,0.18-0.286,0.338-0.379c0.158-0.094,0.328-0.14,0.508-0.14
			c0.24,0,0.426,0.069,0.557,0.207s0.197,0.359,0.197,0.662v2.268h0.606V7.634c0-0.35-0.042-0.618-0.126-0.802
			C116.11,6.648,115.971,6.504,115.775,6.399z"/>
		<rect x="117.248" y="4.963" fill="#8E8E8E" width="0.605" height="0.697"/>
		<rect x="117.248" y="6.324" fill="#8E8E8E" width="0.605" height="3.579"/>
		<path fill="#8E8E8E" d="M119.525,5.994c0-0.215,0.038-0.363,0.114-0.441c0.077-0.079,0.206-0.118,0.392-0.118
			c0.111,0,0.23,0.011,0.356,0.034l0.091-0.529c-0.207-0.041-0.395-0.061-0.566-0.061c-0.265,0-0.471,0.049-0.617,0.146
			c-0.148,0.098-0.25,0.225-0.309,0.383c-0.043,0.116-0.064,0.295-0.064,0.535v0.381h-0.535v0.472h0.535v3.107h0.604V6.795h0.697
			V6.324h-0.697V5.994z"/>
		<path fill="#8E8E8E" d="M121.752,9.383c-0.09,0-0.159-0.015-0.207-0.043c-0.048-0.029-0.083-0.069-0.104-0.119
			c-0.021-0.049-0.032-0.16-0.032-0.333V6.795h0.609V6.324h-0.609v-1.25l-0.604,0.363v0.886h-0.443v0.472h0.443v2.058
			c0,0.364,0.025,0.604,0.074,0.717c0.05,0.113,0.135,0.205,0.257,0.273c0.121,0.07,0.292,0.105,0.513,0.105
			c0.134,0,0.287-0.019,0.457-0.055l-0.088-0.535C121.908,9.375,121.819,9.383,121.752,9.383z"/>
		<path fill="#8E8E8E" d="M125.836,5.122c-0.146-0.148-0.4-0.153-0.557,0.004l-1.7,1.7c-0.073,0.073-0.115,0.175-0.114,0.28
			c0,0.216,0.176,0.392,0.391,0.392h0.563v1.805l0.003,0.039c0.044,0.213,0.219,0.378,0.462,0.411h1.359l0.011-0.001
			c0.265-0.027,0.466-0.25,0.466-0.52V7.493h0.545c0.008,0,0.027,0,0.014-0.001l0.051,0l0.099-0.034h0.001l0.182-0.141l0.045-0.212
			V7.06l0.005-0.009L125.836,5.122z M126.597,7.101c-0.131,0.019-0.238,0.119-0.267,0.249l-0.006,1.885
			c0,0.063-0.045,0.114-0.105,0.125l-1.307,0.002c-0.047-0.008-0.086-0.041-0.101-0.084V7.103l-0.954,0.001l1.704-1.7l1.664,1.664
			l0.015,0.019L126.597,7.101z"/>
	</g>
	<g>
		<path fill="#8E8E8E" d="M135.277,10.25V7.859h-2.373V6.86h2.373V4.487h1.011V6.86h2.372v0.999h-2.372v2.391H135.277z"/>
	</g>
	<g>
		<path fill="#8E8E8E" d="M154.09,4.589l0.48,0.534c0.141,0.157,0.383,0.17,0.539,0.028s0.17-0.383,0.029-0.54l-1.147-1.274
			c-0.068-0.078-0.171-0.126-0.284-0.126c-0.112,0-0.214,0.049-0.283,0.126l-1.146,1.274c-0.143,0.157-0.13,0.398,0.027,0.54
			c0.158,0.142,0.398,0.128,0.541-0.028l0.48-0.534v2.317h0.764V4.589z"/>
		<path fill="#8E8E8E" d="M153.326,9.987l-0.48-0.534c-0.141-0.158-0.383-0.174-0.541-0.033c-0.158,0.139-0.174,0.381-0.034,0.539
			c0.002,0.002,0.005,0.004,0.007,0.006l1.146,1.274c0.069,0.078,0.171,0.127,0.283,0.127c0.113,0,0.216-0.049,0.284-0.127
			l1.147-1.274c0.141-0.156,0.127-0.398-0.029-0.539c-0.156-0.142-0.398-0.129-0.539,0.027l-0.48,0.534V7.67h-0.764V9.987z"/>
	</g>
</g>
<g>
	<path fill="#8E8E8E" d="M58.52,10.816c0,0.744-0.315,1.291-0.947,1.639l-0.199-0.332c0.455-0.303,0.694-0.688,0.72-1.154
		l-0.142,0.009c-0.139,0-0.256-0.041-0.351-0.123c-0.088-0.082-0.132-0.196-0.132-0.341c0-0.164,0.044-0.281,0.132-0.35
		c0.082-0.089,0.199-0.133,0.351-0.133C58.331,10.031,58.52,10.293,58.52,10.816z"/>
	<path fill="#8E8E8E" d="M66.435,4.71h2.907c0.095-0.423,0.183-0.912,0.265-1.467l0.511,0.057c-0.063,0.398-0.152,0.868-0.265,1.411
		h4.791v0.492h-4.904c-0.227,0.853-0.496,1.625-0.805,2.32h4.952v0.501h-2.405v3.077h3.19v0.502H67.75v-0.502h3.209V8.023h-2.263
		c-0.606,1.162-1.354,2.1-2.244,2.813l-0.256-0.474c1.427-1.206,2.434-2.926,3.021-5.16h-2.784V4.71z"/>
	<path fill="#8E8E8E" d="M83.184,7.446v4.469h-0.502v-0.55h-4.1v0.55H78.07V7.854c-0.619,0.826-1.357,1.505-2.215,2.035L75.59,9.425
		c1.546-1.017,2.654-2.427,3.323-4.232h-3.039V4.691h3.21c0.15-0.511,0.271-1,0.359-1.467l0.521,0.057
		c-0.082,0.442-0.198,0.912-0.351,1.411h4.498v0.502h-4.658c-0.297,0.839-0.663,1.591-1.099,2.253H83.184z M78.582,10.863h4.1V7.938
		h-4.1V10.863z"/>
	<path fill="#8E8E8E" d="M85.219,3.962c1.148-0.113,2.164-0.312,3.048-0.596l0.181,0.483c-0.492,0.139-0.91,0.246-1.25,0.322v1.742
		h1.307v0.501h-1.307v0.587c0.41,0.335,0.871,0.767,1.382,1.298l-0.284,0.416c-0.441-0.549-0.808-0.969-1.098-1.259v4.412h-0.512
		V7.333c-0.359,0.985-0.855,1.855-1.486,2.613l-0.218-0.539c0.789-0.884,1.345-1.881,1.667-2.992h-1.459V5.913h1.496V4.265
		c-0.354,0.057-0.811,0.117-1.373,0.18L85.219,3.962z M92.31,7.067c-0.177,0.278-0.392,0.534-0.644,0.767h2.007v0.445
		c-0.587,1.686-2.323,2.881-5.207,3.588l-0.265-0.473c1.142-0.26,2.076-0.584,2.802-0.976c-0.29-0.303-0.593-0.606-0.909-0.909
		l0.369-0.265c0.348,0.31,0.666,0.622,0.957,0.937c0.826-0.517,1.397-1.142,1.713-1.874h-2.082
		c-0.632,0.417-1.424,0.748-2.377,0.994l-0.303-0.464c1.666-0.397,2.824-1.057,3.475-1.979L92.31,7.067z M91.268,3.337
		c-0.15,0.246-0.313,0.483-0.482,0.71h2.244v0.417c-0.549,1.471-1.957,2.525-4.223,3.162l-0.275-0.378
		c0.771-0.202,1.445-0.464,2.027-0.786c-0.271-0.372-0.524-0.659-0.758-0.861l0.359-0.274c0.303,0.278,0.559,0.583,0.768,0.918
		c0.719-0.479,1.249-1.063,1.59-1.751h-2.121c-0.461,0.461-0.972,0.846-1.533,1.155L88.522,5.24
		c0.928-0.486,1.676-1.158,2.243-2.017L91.268,3.337z"/>
	<path fill="#8E8E8E" d="M94.629,6.537h4.118v0.511h-2.225c-0.423,1.559-0.792,2.648-1.108,3.266c0.82-0.145,1.657-0.379,2.51-0.7
		c-0.297-0.612-0.559-1.114-0.786-1.505L97.573,7.9c0.46,0.814,0.899,1.701,1.315,2.66l-0.454,0.228l-0.321-0.748
		c-0.998,0.354-2.096,0.642-3.295,0.862l-0.123-0.483c0.063-0.024,0.098-0.041,0.104-0.048c0.303-0.396,0.711-1.505,1.222-3.323
		h-1.392V6.537z M95.008,3.991h3.37v0.482h-3.37V3.991z M100.271,3.29h0.512v1.761h2.082c0,3.036-0.044,4.926-0.133,5.671
		c-0.075,0.72-0.47,1.079-1.184,1.079c-0.17,0-0.47-0.01-0.898-0.027l-0.123-0.445c0.504,0.012,0.83,0.019,0.975,0.019
		c0.416,0,0.663-0.259,0.738-0.776c0.063-0.549,0.104-2.225,0.123-5.027h-1.58v0.133c-0.025,2.84-0.698,4.923-2.018,6.248
		l-0.406-0.359c1.256-1.225,1.893-3.188,1.912-5.889V5.543h-1.25V5.051h1.25V3.29z"/>
</g>
<g>
	<path fill="#8E8E8E" d="M4.05,3.262h0.53v2.992h3.503v0.492H4.58v4.241h4.384v0.502H0.585v-0.502H4.05V3.262z"/>
	<path fill="#8E8E8E" d="M10.043,3.82h8.359v0.501h-4.175v1.581c1.193,0.612,2.405,1.322,3.635,2.13L17.56,8.488
		c-1.307-0.884-2.417-1.569-3.333-2.055v5.491h-0.502V4.322h-3.683V3.82z"/>
	<path fill="#8E8E8E" d="M19.52,3.962c1.148-0.113,2.165-0.312,3.048-0.596l0.18,0.483c-0.492,0.139-0.909,0.246-1.25,0.322v1.742
		h1.307v0.501h-1.307v0.587c0.41,0.335,0.871,0.767,1.382,1.298l-0.284,0.416c-0.442-0.549-0.808-0.969-1.099-1.259v4.412h-0.511
		V7.333c-0.359,0.985-0.855,1.855-1.486,2.613l-0.218-0.539c0.789-0.884,1.345-1.881,1.667-2.992h-1.458V5.913h1.496V4.265
		c-0.354,0.057-0.811,0.117-1.373,0.18L19.52,3.962z M26.611,7.067c-0.177,0.278-0.392,0.534-0.644,0.767h2.007v0.445
		c-0.587,1.686-2.323,2.881-5.207,3.588l-0.265-0.473c1.142-0.26,2.076-0.584,2.802-0.976c-0.291-0.303-0.593-0.606-0.909-0.909
		l0.369-0.265c0.347,0.31,0.666,0.622,0.956,0.937c0.827-0.517,1.398-1.142,1.713-1.874h-2.083
		c-0.631,0.417-1.423,0.748-2.376,0.994l-0.303-0.464c1.666-0.397,2.824-1.057,3.475-1.979L26.611,7.067z M25.57,3.337
		c-0.151,0.246-0.313,0.483-0.483,0.71h2.244v0.417c-0.549,1.471-1.957,2.525-4.222,3.162l-0.275-0.378
		c0.77-0.202,1.445-0.464,2.026-0.786c-0.271-0.372-0.524-0.659-0.758-0.861l0.36-0.274c0.303,0.278,0.559,0.583,0.767,0.918
		c0.719-0.479,1.25-1.063,1.59-1.751h-2.121c-0.461,0.461-0.972,0.846-1.534,1.155L22.824,5.24c0.928-0.486,1.676-1.158,2.244-2.017
		L25.57,3.337z"/>
	<path fill="#8E8E8E" d="M28.931,6.537h4.118v0.511h-2.225c-0.423,1.559-0.792,2.648-1.108,3.266c0.82-0.145,1.657-0.379,2.509-0.7
		c-0.297-0.612-0.559-1.114-0.786-1.505L31.875,7.9c0.46,0.814,0.899,1.701,1.316,2.66l-0.455,0.228l-0.322-0.748
		c-0.998,0.354-2.096,0.642-3.295,0.862l-0.123-0.483c0.063-0.024,0.098-0.041,0.104-0.048c0.303-0.396,0.71-1.505,1.221-3.323
		h-1.392V6.537z M29.309,3.991h3.371v0.482h-3.371V3.991z M34.573,3.29h0.511v1.761h2.083c0,3.036-0.044,4.926-0.132,5.671
		c-0.076,0.72-0.47,1.079-1.184,1.079c-0.17,0-0.47-0.01-0.899-0.027l-0.123-0.445c0.505,0.012,0.83,0.019,0.975,0.019
		c0.417,0,0.663-0.259,0.739-0.776c0.063-0.549,0.104-2.225,0.123-5.027h-1.581v0.133c-0.025,2.84-0.698,4.923-2.017,6.248
		l-0.407-0.359c1.256-1.225,1.894-3.188,1.913-5.889V5.543h-1.25V5.051h1.25V3.29z"/>
</g>
<g>
	<path fill="#8E8E8E" d="M49,5.286h-0.648c0-1.61-1.305-2.915-2.915-2.915s-2.915,1.305-2.915,2.915h-0.648
		c0-1.968,1.596-3.563,3.563-3.563S49,3.318,49,5.286L49,5.286z M45.437,12.088c-1.968,0-3.563-1.595-3.563-3.563V5.934h0.648v2.591
		c0,1.609,1.305,2.915,2.915,2.915s2.915-1.306,2.915-2.915V5.934H49v2.591C49,10.493,47.404,12.088,45.437,12.088L45.437,12.088z
		 M45.437,12.088"/>
	<rect x="45.112" y="3.667" fill="#8E8E8E" width="0.647" height="2.591"/>
</g>
<g>
	<path fill="#8E8E8E" d="M53.012,4.375l0.48,0.534c0.141,0.157,0.383,0.17,0.54,0.028c0.155-0.142,0.17-0.383,0.028-0.54
		l-1.147-1.274c-0.068-0.078-0.171-0.126-0.284-0.126c-0.112,0-0.214,0.049-0.283,0.126l-1.146,1.274
		c-0.143,0.157-0.13,0.398,0.027,0.54c0.158,0.142,0.398,0.128,0.541-0.028l0.48-0.534v2.317h0.764V4.375z"/>
	<path fill="#8E8E8E" d="M52.248,9.773l-0.48-0.534c-0.141-0.158-0.383-0.174-0.541-0.034c-0.158,0.139-0.174,0.381-0.034,0.539
		c0.002,0.003,0.005,0.005,0.007,0.007l1.146,1.274c0.069,0.078,0.171,0.127,0.283,0.127c0.113,0,0.216-0.049,0.284-0.127
		l1.147-1.274c0.142-0.157,0.127-0.398-0.028-0.54c-0.157-0.141-0.399-0.129-0.54,0.027l-0.48,0.535V7.456h-0.764V9.773z"/>
</g>
</svg>
