<?xml version="1.0" standalone="no"?><!DOCTYPE svg PUBLIC "-//W3C//DTD SVG 1.1//EN" "http://www.w3.org/Graphics/SVG/1.1/DTD/svg11.dtd"><svg t="1584883872205" class="icon" viewBox="0 0 1092 1024" version="1.1" xmlns="http://www.w3.org/2000/svg" p-id="8528" width="17.0625" height="16" xmlns:xlink="http://www.w3.org/1999/xlink"><defs><style type="text/css"></style></defs><path d="M1013.572267 730.55744c7.314773 7.079253 8.9856 15.269547 5.009066 24.49408-4.053333 9.460053-10.97216 14.1568-20.993706 14.1568h-135.6544l71.410346 168.973653c2.382507 5.879467 2.382507 11.687253 0 17.41312-2.387627 5.643947-6.44096 9.856-12.08832 12.404054l-62.897493 26.635946c-5.886293 2.38592-11.690667 2.38592-17.41312 0-5.645653-2.382507-9.86112-6.43584-12.40576-12.086613l-67.831467-160.462507-110.68416 110.923094c-4.4544 4.452693-9.857707 6.760107-15.981226 6.760106-2.860373 0-5.645653-0.636587-8.50944-1.829546-9.463467-4.053333-14.153387-10.970453-14.153387-20.993707V383.071573c0-9.939627 4.68992-16.935253 14.153387-20.993706 2.865493-1.191253 5.650773-1.829547 8.50944-1.829547 6.439253 0 11.687253 2.225493 15.981226 6.760107L1013.572267 730.55744z m0 0" p-id="8529" fill="#515151"></path><path d="M498.389333 928.037547H144.136533V95.960747H976.213333v369.2032h69.338454V95.960747c0-34.665813-34.670933-69.336747-69.338454-69.336747H144.136533c-34.665813 0-69.338453 34.670933-69.338453 69.336747v832.0768c0 34.66752 34.67264 69.338453 69.338453 69.338453h354.2528v-69.338453z" p-id="8530" fill="#515151"></path></svg>