<?xml version="1.0" encoding="utf-8"?>
<!-- Generator: Adobe Illustrator 24.1.0, SVG Export Plug-In . SVG Version: 6.00 Build 0)  -->
<svg version="1.1" id="图层_1" xmlns="http://www.w3.org/2000/svg" xmlns:xlink="http://www.w3.org/1999/xlink" x="0px" y="0px"
	 viewBox="0 0 16 16" style="enable-background:new 0 0 16 16;" xml:space="preserve">
<path d="M1,1v1.2h1.2V1H1z M3.4,1v1.2h1.2V1C4.6,1,3.4,1,3.4,1z M5.7,1v1.2h1.2V1H5.7z M8.1,1v1.2h1.2V1H8.1z M10.5,1v1.2h1.2V1
	H10.5z M12.8,1v1.2H14V1H12.8z M1,3.4v1.2h1.2V3.4C2.2,3.4,1,3.4,1,3.4z M12.8,3.4v1.2H14V3.4C14,3.4,12.8,3.4,12.8,3.4z M1,5.7v1.2
	h1.2V5.7C2.2,5.7,1,5.7,1,5.7z M12.8,5.7v1.2H14V5.7C14,5.7,12.8,5.7,12.8,5.7z M1,8.1v1.2h1.2V8.1H1z M1,10.5v1.2h1.2v-1.2H1z
	 M1,12.8V14h1.2v-1.2H1z M3.4,12.8V14h1.2v-1.2C4.6,12.8,3.4,12.8,3.4,12.8z M5.7,12.8V14h1.2v-1.2H5.7z M13.9,10.8
	C14,10.9,14,11,14,11.1c-0.1,0.1-0.1,0.2-0.3,0.2h-1.8l0.9,2.2c0,0.1,0,0.2,0,0.2c0,0.1-0.1,0.1-0.2,0.2l-0.8,0.4
	c-0.1,0-0.2,0-0.2,0c-0.1,0-0.1-0.1-0.2-0.2L10.5,12l-1.5,1.5c-0.1,0.1-0.1,0.1-0.2,0.1c0,0-0.1,0-0.1,0c-0.1-0.1-0.2-0.1-0.2-0.3
	V6.2c0-0.1,0.1-0.2,0.2-0.3c0,0,0.1,0,0.1,0c0.1,0,0.2,0,0.2,0.1L13.9,10.8z"/>
</svg>
