<?xml version="1.0" standalone="no"?><!DOCTYPE svg PUBLIC "-//W3C//DTD SVG 1.1//EN" "http://www.w3.org/Graphics/SVG/1.1/DTD/svg11.dtd"><svg t="1595218758674" class="icon" viewBox="0 0 1024 1024" version="1.1" xmlns="http://www.w3.org/2000/svg" p-id="33283" xmlns:xlink="http://www.w3.org/1999/xlink" width="200" height="200"><defs><style type="text/css"></style></defs><path d="M512 322c-104.93 0-190 85.07-190 190s85.07 190 190 190 190-85.07 190-190-85.07-190-190-190z" fill="#2c2c2c" p-id="33284"></path><path d="M952 476h-31.56C903.24 278.29 745.71 120.76 548 103.56V72a8 8 0 0 0-8-8h-56a8 8 0 0 0-8 8v31.56C278.29 120.76 120.76 278.29 103.56 476H72a8 8 0 0 0-8 8v56a8 8 0 0 0 8 8h31.56C120.76 745.71 278.29 903.24 476 920.44V952a8 8 0 0 0 8 8h56a8 8 0 0 0 8-8v-31.56C745.71 903.24 903.24 745.71 920.44 548H952a8 8 0 0 0 8-8v-56a8 8 0 0 0-8-8zM819.78 642A333.63 333.63 0 0 1 548 844.08V816a8 8 0 0 0-8-8h-56a8 8 0 0 0-8 8v28.08A333.63 333.63 0 0 1 179.92 548H208a8 8 0 0 0 8-8v-56a8 8 0 0 0-8-8h-28.08A333.63 333.63 0 0 1 476 179.92V208a8 8 0 0 0 8 8h56a8 8 0 0 0 8-8v-28.08A333.63 333.63 0 0 1 844.08 476H816a8 8 0 0 0-8 8v56a8 8 0 0 0 8 8h28.08a330.24 330.24 0 0 1-24.3 94z" fill="#2c2c2c" p-id="33285"></path></svg>