<?xml version="1.0" encoding="utf-8"?>
<!-- Generator: Adobe Illustrator 16.0.0, SVG Export Plug-In . SVG Version: 6.00 Build 0)  -->
<!DOCTYPE svg PUBLIC "-//W3C//DTD SVG 1.1//EN" "http://www.w3.org/Graphics/SVG/1.1/DTD/svg11.dtd">
<svg version="1.1" id="图层_1" xmlns="http://www.w3.org/2000/svg" xmlns:xlink="http://www.w3.org/1999/xlink" x="0px" y="0px"
	 width="128px" height="128px" viewBox="0 0 128 128" enable-background="new 0 0 128 128" xml:space="preserve">
<g>
	<path fill="#040000" d="M78.72,34.108h4.43c2.209,0,4.063,1.554,4.522,3.626h26.329c1.207,0,2.25-0.441,3.132-1.322
		c0.881-0.882,1.322-1.926,1.322-3.133v-8.908c0-1.207-0.441-2.25-1.322-3.133c-0.882-0.881-1.925-1.322-3.132-1.322H16.002
		c-1.207,0-2.25,0.441-3.133,1.322c-0.881,0.882-1.322,1.926-1.322,3.133v8.908c0,1.207,0.441,2.25,1.322,3.133
		c0.882,0.881,1.926,1.322,3.133,1.322h58.193C74.657,35.662,76.511,34.108,78.72,34.108z"/>
	<path fill="#040000" d="M45.113,66.818c0.75-4.039,2.179-7.823,4.131-11.267H16.002c-1.207,0-2.25,0.441-3.133,1.322
		c-0.881,0.882-1.322,1.926-1.322,3.132v8.909c0,1.206,0.441,2.25,1.322,3.131c0.882,0.883,1.926,1.323,3.133,1.323h25.483V71.34
		C41.485,69.131,43.04,67.278,45.113,66.818z"/>
	<path fill="#040000" d="M49.026,91.186H16.002c-1.207,0-2.25,0.44-3.133,1.323c-0.881,0.882-1.322,1.926-1.322,3.132v8.91
		c0,1.205,0.441,2.249,1.322,3.131c0.882,0.883,1.926,1.323,3.133,1.323h56.541C62.389,106.625,53.917,100.059,49.026,91.186z"/>
	<path fill="#040000" d="M95.959,73.369c-0.102-8.215-6.785-14.845-15.024-14.845s-14.922,6.63-15.023,14.845
		c-0.001,0.063-0.01,0.124-0.01,0.188c0,8.302,6.73,15.034,15.033,15.034s15.034-6.732,15.034-15.034
		C95.969,73.493,95.96,73.433,95.959,73.369z"/>
	<path fill="#040000" d="M115.75,70.708h-2.496c-0.485-5.577-2.388-10.746-5.337-15.156c-5.322-7.959-14.067-13.438-24.134-14.313
		v-2.497c0-0.35-0.283-0.633-0.634-0.633h-4.43c-0.35,0-0.635,0.283-0.635,0.633v2.497c-10.066,0.875-18.811,6.354-24.133,14.313
		c-2.949,4.41-4.851,9.579-5.336,15.156h-2.497c-0.35,0-0.633,0.283-0.633,0.632v2.029v2.402c0,0.35,0.283,0.633,0.633,0.633h2.497
		c0.471,5.419,2.277,10.455,5.083,14.781c5.296,8.165,14.162,13.8,24.386,14.689v2.497c0,0.35,0.285,0.633,0.635,0.633h4.43
		c0.351,0,0.634-0.283,0.634-0.633v-2.497c10.226-0.89,19.091-6.524,24.388-14.689c2.806-4.326,4.611-9.362,5.083-14.781h2.496
		c0.351,0,0.634-0.283,0.634-0.633v-3.115V71.34C116.384,70.991,116.101,70.708,115.75,70.708z M83.783,99.832v-2.221
		c0-0.35-0.283-0.633-0.634-0.633h-4.43c-0.35,0-0.635,0.283-0.635,0.633v2.221c-6.682-0.718-12.589-3.917-16.827-8.646
		c-3.593-4.01-5.991-9.115-6.6-14.781h2.222c0.349,0,0.633-0.283,0.633-0.633v-2.402V71.34c0-0.349-0.284-0.632-0.633-0.632h-2.222
		c0.628-5.845,3.161-11.093,6.946-15.156c4.211-4.521,9.979-7.572,16.481-8.271v2.222c0,0.349,0.285,0.633,0.635,0.633h4.43
		c0.351,0,0.634-0.284,0.634-0.633v-2.222c6.503,0.699,12.27,3.75,16.482,8.271c3.785,4.063,6.317,9.312,6.945,15.156h-2.221
		c-0.352,0-0.634,0.283-0.634,0.632v2.029v2.402c0,0.35,0.282,0.633,0.634,0.633h2.221c-0.271,2.561-0.918,5.066-1.924,7.438
		c-1.151,2.731-2.735,5.201-4.652,7.344C96.346,95.979,90.379,99.125,83.783,99.832z"/>
</g>
</svg>
