<?xml version="1.0" encoding="utf-8"?>
<!-- Generator: Adobe Illustrator 16.0.0, SVG Export Plug-In . SVG Version: 6.00 Build 0)  -->
<!DOCTYPE svg PUBLIC "-//W3C//DTD SVG 1.1//EN" "http://www.w3.org/Graphics/SVG/1.1/DTD/svg11.dtd">
<svg version="1.1" id="图层_1" xmlns="http://www.w3.org/2000/svg" xmlns:xlink="http://www.w3.org/1999/xlink" x="0px" y="0px"
	 width="128px" height="128px" viewBox="0 0 128 128" enable-background="new 0 0 128 128" xml:space="preserve">
<g>
	<path fill="none" d="M64,39.97c13.453,0,24.359,10.906,24.359,24.359c0,3.282-0.653,6.41-1.83,9.267l13.642,13.642
		c1.248-1.974,2.363-4.049,3.288-6.242c1.628-3.842,2.677-7.903,3.115-12.052h-3.6c-0.566,0-1.025-0.46-1.025-1.025v-7.179
		c0-0.566,0.459-1.025,1.025-1.025h3.6c-2.149-20.006-17.952-35.81-37.959-37.959v3.6c0,0.566-0.459,1.025-1.025,1.025h-7.18
		c-0.566,0-1.025-0.459-1.025-1.025v-3.6c-6.691,0.719-12.908,2.971-18.305,6.392L54.733,41.8C57.59,40.623,60.718,39.97,64,39.97z"
		/>
	<path fill="none" d="M64,88.688c-13.452,0-24.358-10.906-24.358-24.359c0-0.519,0.021-1.032,0.054-1.543L24.553,47.643
		c-1.595,3.775-2.67,7.827-3.126,12.071h3.6c0.566,0,1.025,0.459,1.025,1.025v7.179c0,0.565-0.459,1.025-1.025,1.025h-3.6
		c2.149,20.007,17.952,35.81,37.958,37.958v-3.6c0-0.566,0.459-1.025,1.025-1.025h7.18c0.566,0,1.025,0.459,1.025,1.025v3.6
		c4.215-0.452,8.262-1.538,12.057-3.14L65.544,88.634C65.033,88.666,64.519,88.688,64,88.688z"/>
	<path fill="#040000" d="M39.642,64.329c0,13.453,10.906,24.359,24.358,24.359c0.519,0,1.033-0.021,1.544-0.054L39.695,62.786
		C39.663,63.296,39.642,63.81,39.642,64.329z"/>
	<path fill="#040000" d="M68.615,106.901v-3.6c0-0.566-0.459-1.025-1.025-1.025h-7.18c-0.566,0-1.025,0.459-1.025,1.025v3.6
		c-20.006-2.148-35.809-17.951-37.958-37.958h3.6c0.566,0,1.025-0.46,1.025-1.025v-7.179c0-0.566-0.459-1.025-1.025-1.025h-3.6
		c0.456-4.244,1.532-8.295,3.126-12.071l-7.318-7.317c-3.036,5.903-4.995,12.45-5.599,19.388H7.59c-0.566,0-1.025,0.459-1.025,1.025
		v7.179c0,0.565,0.459,1.025,1.025,1.025h4.046c2.205,25.347,22.401,45.543,47.749,47.749v4.046c0,0.566,0.459,1.025,1.025,1.025
		h7.18c0.566,0,1.025-0.459,1.025-1.025v-4.046c6.938-0.604,13.485-2.563,19.389-5.599l-7.332-7.332
		C76.877,105.363,72.83,106.449,68.615,106.901z"/>
	<path fill="#040000" d="M120.411,59.713h-4.046c-2.206-25.348-22.401-45.544-47.75-47.749V7.918c0-0.566-0.459-1.025-1.025-1.025
		h-7.18c-0.566,0-1.025,0.459-1.025,1.025v4.046c-9.366,0.815-18.024,4.091-25.335,9.171c-0.878-0.828-1.942-1.253-3.203-1.253
		c-1.313,0-2.418,0.449-3.315,1.347L20.9,27.859c0,0-0.001,0.001-0.001,0.002c-0.896,0.897-1.345,2.001-1.345,3.313
		c0,1.26,0.426,2.325,1.254,3.203c0.034,0.036,0.058,0.077,0.093,0.112l6.918,6.918l13.653,13.653l31.796,31.796l13.649,13.649
		l6.921,6.921c0.035,0.035,0.076,0.06,0.113,0.094c0.878,0.828,1.942,1.254,3.203,1.254c1.313-0.002,2.417-0.451,3.314-1.348
		l1.884-1.884l4.747-4.746c0.897-0.898,1.347-2.004,1.348-3.316c-0.001-1.261-0.427-2.324-1.254-3.202
		c5.08-7.312,8.356-15.97,9.172-25.336h4.046c0.566,0,1.025-0.46,1.025-1.025v-7.179C121.437,60.173,120.978,59.713,120.411,59.713z
		 M102.975,68.943h3.6c-0.438,4.148-1.487,8.21-3.115,12.052c-0.925,2.193-2.04,4.269-3.288,6.242L86.529,73.596
		c1.177-2.857,1.83-5.985,1.83-9.267C88.359,50.876,77.453,39.97,64,39.97c-3.282,0-6.41,0.653-9.267,1.83L41.08,28.146
		c5.397-3.42,11.614-5.673,18.305-6.392v3.6c0,0.566,0.459,1.025,1.025,1.025h7.18c0.566,0,1.025-0.459,1.025-1.025v-3.6
		c20.007,2.149,35.81,17.953,37.959,37.959h-3.6c-0.566,0-1.025,0.459-1.025,1.025v7.179
		C101.949,68.483,102.408,68.943,102.975,68.943z"/>
</g>
</svg>
