<?xml version="1.0" standalone="no"?><!DOCTYPE svg PUBLIC "-//W3C//DTD SVG 1.1//EN" "http://www.w3.org/Graphics/SVG/1.1/DTD/svg11.dtd"><svg t="1584884366630" class="icon" viewBox="0 0 1024 1024" version="1.1" xmlns="http://www.w3.org/2000/svg" p-id="23667" width="16" height="16" xmlns:xlink="http://www.w3.org/1999/xlink"><defs><style type="text/css"></style></defs><path d="M1007.517 479.282L876.626 348.39c-11.333-11.332-26.804-25.773-48.438-16.484s-22.683 31.973-22.683 31.973v75.206H585.43V219.543h68.03c11.332 0 26.803-3.09 35.045-15.453 15.453-27.834-3.091-45.348-3.091-45.348S578.734 49.983 549.869 21.137C545.571 17.017 532.871 0 513.332 0c-20.622 0-34.015 16.483-34.015 16.483L348.373 147.428c-11.332 11.332-25.773 26.803-16.483 48.438s31.972 22.682 31.972 22.682h75.224V438.57H219.543v-68.03c0-11.332-3.09-26.803-15.453-35.045-27.834-15.453-45.348 3.091-45.348 3.091S49.983 445.266 21.137 474.131C17.017 478.429 0 491.129 0 510.703c0 20.622 16.483 34.015 16.483 34.015l130.945 130.909c11.332 11.332 26.803 25.773 48.438 16.483s22.682-31.972 22.682-31.972v-75.224H438.57v219.543h-68.03c-11.332 0-26.803 3.09-35.045 15.453-15.453 27.834 3.091 45.348 3.091 45.348s106.68 108.741 135.545 137.605c4.298 4.103 16.998 21.137 36.59 21.137 20.622 0 34.015-16.483 34.015-16.483l130.89-130.891c11.333-11.333 25.774-26.804 16.484-48.438s-31.972-22.683-31.972-22.683h-75.224V585.43h219.543v68.03c0 11.332 3.09 26.803 15.453 35.045 27.834 15.453 45.348-3.091 45.348-3.091s108.741-106.68 137.605-135.545c4.103-4.298 21.137-16.998 21.137-36.59 0-20.604-16.483-33.997-16.483-33.997z" p-id="23668" fill="#515151"></path></svg>