<?xml version="1.0" encoding="utf-8"?>
<!-- Generator: Adobe Illustrator 24.1.0, SVG Export Plug-In . SVG Version: 6.00 Build 0)  -->
<svg version="1.1" id="图层_1" xmlns="http://www.w3.org/2000/svg" xmlns:xlink="http://www.w3.org/1999/xlink" x="0px" y="0px"
	 viewBox="0 0 16 16" style="enable-background:new 0 0 16 16;" xml:space="preserve">
<path d="M12.6,0h1.1c0.2,0,0.3,0.1,0.4,0.2c0.1,0.1,0.2,0.2,0.2,0.4v14.9c0,0.2-0.1,0.3-0.2,0.4S13.9,16,13.7,16h-1.1
	c-0.2,0-0.3-0.1-0.4-0.2c-0.1-0.1-0.2-0.2-0.2-0.4V0.6c0-0.2,0.1-0.3,0.2-0.4C12.3,0.1,12.4,0,12.6,0z M9.1,3.4h1.1
	c0.2,0,0.3,0.1,0.4,0.2c0.1,0.1,0.2,0.2,0.2,0.4v11.4c0,0.2-0.1,0.3-0.2,0.4S10.4,16,10.3,16H9.1c-0.2,0-0.3-0.1-0.4-0.2
	c-0.1-0.1-0.2-0.2-0.2-0.4V4c0-0.2,0.1-0.3,0.2-0.4C8.9,3.5,9,3.4,9.1,3.4z M5.7,1.1h1.1c0.2,0,0.3,0.1,0.4,0.2s0.2,0.2,0.2,0.4
	v13.7c0,0.2-0.1,0.3-0.2,0.4S7,16,6.9,16H5.7c-0.2,0-0.3-0.1-0.4-0.2s-0.2-0.2-0.2-0.4V1.7c0-0.2,0.1-0.3,0.2-0.4S5.6,1.1,5.7,1.1z
	 M2.3,4.6h1.1c0.2,0,0.3,0.1,0.4,0.2S4,5,4,5.1v10.3c0,0.2-0.1,0.3-0.2,0.4S3.6,16,3.4,16H2.3c-0.2,0-0.3-0.1-0.4-0.2
	s-0.2-0.2-0.2-0.4V5.1c0-0.2,0.1-0.3,0.2-0.4C2,4.6,2.1,4.6,2.3,4.6z"/>
</svg>
