<?xml version="1.0" standalone="no"?><!DOCTYPE svg PUBLIC "-//W3C//DTD SVG 1.1//EN" "http://www.w3.org/Graphics/SVG/1.1/DTD/svg11.dtd"><svg t="1584885452693" class="icon" viewBox="0 0 1024 1024" version="1.1" xmlns="http://www.w3.org/2000/svg" p-id="60119" width="16" height="16" xmlns:xlink="http://www.w3.org/1999/xlink"><defs><style type="text/css"></style></defs><path d="M870.485316 194.306186L685.790461 378.921058a25.594668 25.594668 0 1 1-36.19246-36.19246l189.1206-189.1206h-130.63945a25.607998 25.607998 0 0 1 0-51.202666h179.402624a34.126224 34.126224 0 0 1 34.139554 34.126224v179.202666a25.607998 25.607998 0 0 1-51.202666 0z m-665.594668 27.55426h51.202666v102.405332h-51.269319zM750.950219 682.65778h102.405332v51.202666h-102.405332z m170.631119 0h102.392001a51.202666 51.202666 0 0 1-51.189335 51.202666h-51.162675z m51.202666-170.631119h51.189335v102.392002h-51.189335z m0-170.631118h51.189335v102.405332h-51.189335z m0-170.631119h51.189335v102.392002h-51.189335z m-255.946678-170.631118h102.392002v51.202666h-102.405333z m-170.631119 0h102.405333v51.202666h-102.458655z m-170.631118 0h102.392002v51.202666h-102.471985z m597.32889 0a51.202666 51.202666 0 0 1 51.189335 51.202666v51.202666h-51.189335V51.202666h-85.31556V0zM256.026661 51.202666v102.405332h-51.202666V51.202666A51.202666 51.202666 0 0 1 256.026661 0h51.202667v51.202666zM648.558217 682.65778h34.126224v51.202666h-34.126224v221.873776a68.265778 68.265778 0 0 1-68.265778 68.265778H68.292439A68.265778 68.265778 0 0 1 0 955.734222V443.734222a68.265778 68.265778 0 0 1 68.265778-68.265778h512.026661a68.265778 68.265778 0 0 1 68.265778 68.265778z" p-id="60120" fill="#515151"></path></svg>