<?xml version="1.0" encoding="utf-8"?>
<!-- Generator: Adobe Illustrator 24.1.0, SVG Export Plug-In . SVG Version: 6.00 Build 0)  -->
<svg version="1.1" xmlns="http://www.w3.org/2000/svg" xmlns:xlink="http://www.w3.org/1999/xlink" x="0px" y="0px"
	 viewBox="0 0 16 16" style="enable-background:new 0 0 16 16;" xml:space="preserve">
<style type="text/css">
	.st0{display:none;}
	.st1{display:inline;}
</style>
<g id="图层_1_x5F_复制2_x5F_2" class="st0">
	<path class="st1" d="M15,1v4h-4V1H15z M10,1v4H6V1H10z M5,1v4H1V1H5z" fill="#515151"/>
	<path class="st1" d="M15,6v4h-4V6H15z M10,6v4H6V6H10z M5,6v4H1V6H5z M10,11v4H6v-4H10z M5,11v4H1v-4H5z" fill="#515151"/>
	<path class="st1" d="M14.9,13.3c0,0,0.1,0.1,0,0.2c0,0.1-0.1,0.1-0.1,0.1h-0.9l0.4,1.1c0,0,0,0.1,0,0.1c0,0,0,0.1-0.1,0.1L13.9,15
		c0,0-0.1,0-0.1,0c0,0-0.1,0-0.1-0.1l-0.4-1l-0.7,0.7c0,0-0.1,0-0.1,0c0,0,0,0-0.1,0c-0.1,0-0.1-0.1-0.1-0.1v-3.4
		c0-0.1,0-0.1,0.1-0.1c0,0,0,0,0.1,0c0,0,0.1,0,0.1,0C12.6,11,14.9,13.3,14.9,13.3z" fill="#515151"/>
</g>
<g id="图层_1_x5F_复制_x5F_2" class="st0">
	<g class="st1">
		<path d="M14.7,1.3v3.4h-3.4V1.3H14.7 M15,1h-4v4h4V1L15,1z" fill="#515151"/>
	</g>
	<g class="st1">
		<path d="M9.7,1.3v3.4H6.3V1.3H9.7 M10,1H6v4h4V1L10,1z" fill="#515151"/>
	</g>
	<g class="st1">
		<path d="M4.7,1.3v3.4H1.3V1.3H4.7 M5,1H1v4h4V1L5,1z" fill="#515151"/>
	</g>
	<g class="st1">
		<path d="M14.7,6.3v3.4h-3.4V6.3H14.7 M15,6h-4v4h4V6L15,6z" fill="#515151"/>
	</g>
	<g class="st1">
		<path d="M9.7,6.3v3.4H6.3V6.3H9.7 M10,6H6v4h4V6L10,6z" fill="#515151"/>
	</g>
	<g class="st1">
		<path d="M4.7,6.3v3.4H1.3V6.3H4.7 M5,6H1v4h4V6L5,6z" fill="#515151"/>
	</g>
	<g class="st1">
		<path d="M9.7,11.3v3.4H6.3v-3.4H9.7 M10,11H6v4h4V11L10,11z" fill="#515151"/>
	</g>
	<g class="st1">
		<path d="M4.7,11.3v3.4H1.3v-3.4H4.7 M5,11H1v4h4V11L5,11z" fill="#515151"/>
	</g>
	<path class="st1" d="M14.9,13.3c0,0,0.1,0.1,0,0.2c0,0.1-0.1,0.1-0.1,0.1h-0.9l0.4,1.1c0,0,0,0.1,0,0.1c0,0,0,0.1-0.1,0.1L13.9,15
		c0,0-0.1,0-0.1,0c0,0-0.1,0-0.1-0.1l-0.4-1l-0.7,0.7c0,0-0.1,0-0.1,0c0,0,0,0-0.1,0c-0.1,0-0.1-0.1-0.1-0.1v-3.4
		c0-0.1,0-0.1,0.1-0.1c0,0,0,0,0.1,0c0,0,0.1,0,0.1,0C12.6,11,14.9,13.3,14.9,13.3z" fill="#515151"/>
</g>
<g id="图层_1">
	<path d="M15,1v4h-4V1H15z M10,1v4H6V1H10z M5,1v4H1V1H5z" fill="#515151"/>
	<path d="M14.9,13.3c0,0,0.1,0.1,0,0.2c0,0.1-0.1,0.1-0.1,0.1h-0.9l0.4,1.1c0,0,0,0.1,0,0.1c0,0,0,0.1-0.1,0.1L13.9,15
		c0,0-0.1,0-0.1,0c0,0-0.1,0-0.1-0.1l-0.4-1l-0.7,0.7c0,0-0.1,0-0.1,0c0,0,0,0-0.1,0c-0.1,0-0.1-0.1-0.1-0.1v-3.4
		c0-0.1,0-0.1,0.1-0.1c0,0,0,0,0.1,0c0,0,0.1,0,0.1,0C12.6,11,14.9,13.3,14.9,13.3z" fill="#515151"/>
</g>
<g id="图层_1_x5F_复制" class="st0">
	<rect x="1" y="1" class="st1" width="4" height="4"/>
	<rect x="1" y="6" class="st1" width="4" height="4"/>
	<rect x="1" y="11" class="st1" width="4" height="4"/>
	<path class="st1" d="M14.9,13.3c0,0,0.1,0.1,0,0.2c0,0.1-0.1,0.1-0.1,0.1h-0.9l0.4,1.1c0,0,0,0.1,0,0.1c0,0,0,0.1-0.1,0.1L13.9,15
		c0,0-0.1,0-0.1,0c0,0-0.1,0-0.1-0.1l-0.4-1l-0.7,0.7c0,0-0.1,0-0.1,0c0,0,0,0-0.1,0c-0.1,0-0.1-0.1-0.1-0.1v-3.4
		c0-0.1,0-0.1,0.1-0.1c0,0,0,0,0.1,0c0,0,0.1,0,0.1,0C12.6,11,14.9,13.3,14.9,13.3z" fill="#515151"/>
</g>
</svg>
