<?xml version="1.0" standalone="no"?><!DOCTYPE svg PUBLIC "-//W3C//DTD SVG 1.1//EN" "http://www.w3.org/Graphics/SVG/1.1/DTD/svg11.dtd"><svg t="1584885593453" class="icon" viewBox="0 0 1025 1024" version="1.1" xmlns="http://www.w3.org/2000/svg" p-id="4810" width="16.015625" height="16" xmlns:xlink="http://www.w3.org/1999/xlink"><defs><style type="text/css"></style></defs><path d="M511.99696 0.02c-282.294354 0-511.98976 229.695406-511.98976 511.98976s229.695406 511.98976 511.98976 511.98976 511.98976-229.695406 511.98976-511.98976S794.391312 0.02 511.99696 0.02zM914.888902 537.209256l24.399512 0c-13.099738 224.395512-199.696006 402.891942-427.291454 402.891942-235.99528 0-428.091438-191.99616-428.091438-428.091438s191.99616-428.091438 428.091438-428.091438c233.195336 0 423.291534 187.49625 427.791444 419.691606l-24.9995 0c-9.299814 0-16.799664 7.49985-16.799664 16.799664C898.089238 529.709406 905.589088 537.209256 914.888902 537.209256zM763.791924 503.609928 713.49293 503.609928c-9.299814 0-16.799664 7.49985-16.799664 16.799664 0 9.299814 7.49985 16.799664 16.799664 16.799664l50.398992 0c9.299814 0 16.799664-7.49985 16.799664-16.799664C780.591588 511.109778 773.091738 503.609928 763.791924 503.609928zM663.093938 503.609928l-50.398992 0c-9.299814 0-16.799664 7.49985-16.799664 16.799664 0 9.299814 7.49985 16.799664 16.799664 16.799664l50.398992 0c9.299814 0 16.799664-7.49985 16.799664-16.799664C679.893602 511.109778 672.393752 503.609928 663.093938 503.609928zM864.589908 503.609928l-50.398992 0c-9.299814 0-16.799664 7.49985-16.799664 16.799664 0 9.299814 7.49985 16.799664 16.799664 16.799664l50.398992 0c9.299814 0 16.799664-7.49985 16.799664-16.799664C881.389572 511.109778 873.889722 503.609928 864.589908 503.609928zM562.395952 503.609928l-50.398992 0c-9.299814 0-16.799664 7.49985-16.799664 16.799664 0 9.299814 7.49985 16.799664 16.799664 16.799664l50.398992 0c9.299814 0 16.799664-7.49985 16.799664-16.799664C579.195616 511.109778 571.695766 503.609928 562.395952 503.609928z" p-id="4811" fill="#515151"></path></svg>