<?xml version="1.0" encoding="utf-8"?>
<!-- Generator: Adobe Illustrator 24.1.0, SVG Export Plug-In . SVG Version: 6.00 Build 0)  -->
<svg version="1.1" id="图层_1" xmlns="http://www.w3.org/2000/svg" xmlns:xlink="http://www.w3.org/1999/xlink" x="0px" y="0px"
	 viewBox="0 0 16 16" style="enable-background:new 0 0 16 16;" xml:space="preserve">
<path d="M6,6.1c0.2,0.2,0.2,0.5,0.2,0.6C6.1,6.8,5.9,7,5.7,7H1C0.7,7,0.5,6.8,0.5,6.5V1.8c0-0.2,0.2-0.4,0.2-0.6
	c0.2-0.1,0.5,0,0.6,0.2l1.4,1.4C4.7,0.9,7.4,0.2,10,0.9c2.6,0.7,4.6,2.7,5.3,5.3c1.1,4-1.2,8.2-5.2,9.3c-3.9,1.1-8.1-1.1-9.3-5.2
	C0.6,9.8,0.9,9.2,1.5,9c0.6-0.2,1.2,0.2,1.4,0.8c0.6,2.1,2.3,3.6,4.5,3.9c2.2,0.3,4.3-0.8,5.4-2.7c1.4-2.3,0.8-5.2-1.3-6.9
	c-2-1.7-5.1-1.6-7,0.2L6,6.1z" fill="#515151"/>
</svg>
