<?xml version="1.0" encoding="utf-8"?>
<!-- Generator: Adobe Illustrator 24.1.0, SVG Export Plug-In . SVG Version: 6.00 Build 0)  -->
<svg version="1.1" id="图层_1" xmlns="http://www.w3.org/2000/svg" xmlns:xlink="http://www.w3.org/1999/xlink" x="0px" y="0px"
	 viewBox="0 0 200 200" style="enable-background:new 0 0 200 200;" xml:space="preserve">
<path d="M100,200c-47.8,0-79.2-42.5-73.6-84.1l8.7-65C39,21.4,67.9,0,100,0c32.1,0,61,21.4,64.9,50.8l8.7,65
	C179.2,157.5,147.8,200,100,200z M162.1,113.8l-6-56.5c-3.2-24-25.3-43.1-50.9-45.4v34.8c3.3,1.6,5.5,4.9,5.5,8.8v27.6
	c0,5.4-4.4,9.8-9.8,9.8h-3.1c-5.4,0-9.8-4.4-9.8-9.8V55.5c0-3.9,2.2-7.2,5.5-8.8V12.1C68.4,15,47.1,33.8,44,57.3l-6,56.5
	c-4.8,36.1,20.8,74.5,62.1,74.5S166.9,149.9,162.1,113.8z"/>
<path d="M117.4,51.8v41h35.2l-4.8-37c0,0-3.7-27.2-34.3-34.3v25.3L117.4,51.8z"/>
</svg>
