<?xml version="1.0" encoding="utf-8"?>
<!-- Generator: Adobe Illustrator 24.1.0, SVG Export Plug-In . SVG Version: 6.00 Build 0)  -->
<svg version="1.1" id="图层_1" xmlns="http://www.w3.org/2000/svg" xmlns:xlink="http://www.w3.org/1999/xlink" x="0px" y="0px"
	 viewBox="0 0 16 16" style="enable-background:new 0 0 16 16;" xml:space="preserve">
<style type="text/css">
	.st0{fill:#515151;}
</style>
<path class="st0" d="M10.6,2.7H5.3H5.2v0C2.4,2.8,0.1,5.1,0.1,8s2.3,5.2,5.1,5.2v0h0.1h5.3c2.9,0,5.3-2.4,5.3-5.3S13.5,2.7,10.6,2.7
	z M10.6,12.2H8.5h-1H5.3C3,12.2,1.1,10.3,1.1,8S3,3.8,5.3,3.8h2.1h1h2.1c2.3,0,4.2,1.9,4.2,4.2C14.8,10.3,12.9,12.2,10.6,12.2z"/>
</svg>
