<?xml version="1.0" encoding="utf-8"?>
<!-- Generator: Adobe Illustrator 24.1.0, SVG Export Plug-In . SVG Version: 6.00 Build 0)  -->
<svg version="1.1" id="图层_1" xmlns="http://www.w3.org/2000/svg" xmlns:xlink="http://www.w3.org/1999/xlink" x="0px" y="0px"
	 viewBox="0 0 16 16" style="enable-background:new 0 0 16 16;" xml:space="preserve">
<style type="text/css">
	.st0{display:none;}
	.st1{display:inline;}
</style>
<g id="图层_1_x5F_复制2_x5F_2" class="st0">
	<path class="st1" d="M15,1v4h-4V1H15z M10,1v4H6V1H10z M5,1v4H1V1H5z" fill="#515151"/>
	<path class="st1" d="M15,6v4h-4V6H15z M10,6v4H6V6H10z M5,6v4H1V6H5z M10,11v4H6v-4H10z M5,11v4H1v-4H5z" fill="#515151"/>
	<path class="st1" d="M14.9,13.3c0,0,0.1,0.1,0,0.2c0,0.1-0.1,0.1-0.1,0.1h-0.9l0.4,1.1v0.1c0,0,0,0.1-0.1,0.1L13.9,15h-0.1
		c0,0-0.1,0-0.1-0.1l-0.4-1l-0.7,0.7h-0.1c0,0,0,0-0.1,0s-0.1-0.1-0.1-0.1v-3.4c0-0.1,0-0.1,0.1-0.1c0,0,0,0,0.1,0h0.1
		C12.6,11,14.9,13.3,14.9,13.3z" fill="#515151"/>
</g>
<g id="图层_1_x5F_复制_x5F_2" class="st0">
	<g class="st1">
		<path d="M14.7,1.3v3.4h-3.4V1.3H14.7 M15,1h-4v4h4V1L15,1z" fill="#515151"/>
	</g>
	<g class="st1">
		<path d="M9.7,1.3v3.4H6.3V1.3H9.7 M10,1H6v4h4V1L10,1z" fill="#515151"/>
	</g>
	<g class="st1">
		<path d="M4.7,1.3v3.4H1.3V1.3H4.7 M5,1H1v4h4V1L5,1z" fill="#515151"/>
	</g>
	<g class="st1">
		<path d="M14.7,6.3v3.4h-3.4V6.3H14.7 M15,6h-4v4h4V6L15,6z" fill="#515151"/>
	</g>
	<g class="st1">
		<path d="M9.7,6.3v3.4H6.3V6.3H9.7 M10,6H6v4h4V6L10,6z" fill="#515151"/>
	</g>
	<g class="st1">
		<path d="M4.7,6.3v3.4H1.3V6.3H4.7 M5,6H1v4h4V6L5,6z" fill="#515151"/>
	</g>
	<g class="st1">
		<path d="M9.7,11.3v3.4H6.3v-3.4L9.7,11.3 M10,11H6v4h4V11L10,11z" fill="#515151"/>
	</g>
	<g class="st1">
		<path d="M4.7,11.3v3.4H1.3v-3.4L4.7,11.3 M5,11H1v4h4V11L5,11z" fill="#515151"/>
	</g>
	<path class="st1" d="M14.9,13.3c0,0,0.1,0.1,0,0.2c0,0.1-0.1,0.1-0.1,0.1h-0.9l0.4,1.1v0.1c0,0,0,0.1-0.1,0.1L13.9,15h-0.1
		c0,0-0.1,0-0.1-0.1l-0.4-1l-0.7,0.7h-0.1c0,0,0,0-0.1,0s-0.1-0.1-0.1-0.1v-3.4c0-0.1,0-0.1,0.1-0.1c0,0,0,0,0.1,0h0.1
		C12.6,11,14.9,13.3,14.9,13.3z" fill="#515151"/>
</g>
<g id="图层_1_1_" class="st0">
	<path class="st1" d="M15,1v4h-4V1H15z M10,1v4H6V1H10z M5,1v4H1V1H5z" fill="#515151"/>
	<path class="st1" d="M14.9,13.3c0,0,0.1,0.1,0,0.2c0,0.1-0.1,0.1-0.1,0.1h-0.9l0.4,1.1v0.1c0,0,0,0.1-0.1,0.1L13.9,15h-0.1
		c0,0-0.1,0-0.1-0.1l-0.4-1l-0.7,0.7h-0.1c0,0,0,0-0.1,0s-0.1-0.1-0.1-0.1v-3.4c0-0.1,0-0.1,0.1-0.1c0,0,0,0,0.1,0h0.1
		C12.6,11,14.9,13.3,14.9,13.3z" fill="#515151"/>
</g>
<g id="图层_1_x5F_复制">
	<path d="M14.9,13.3c0,0,0.1,0.1,0,0.2c0,0.1-0.1,0.1-0.1,0.1h-0.9l0.4,1.1v0.1c0,0,0,0.1-0.1,0.1L13.9,15h-0.1c0,0-0.1,0-0.1-0.1
		l-0.4-1l-0.7,0.7h-0.1c0,0,0,0-0.1,0s-0.1-0.1-0.1-0.1v-3.4c0-0.1,0-0.1,0.1-0.1c0,0,0,0,0.1,0h0.1C12.6,11,14.9,13.3,14.9,13.3z" fill="#515151"
		/>
	<path d="M5.3,6.2l-4-1.9C0.9,4.2,0.7,3.8,0.9,3.4C0.9,3.2,1.1,3.1,1.3,3l4-1.9c0.4-0.2,0.8-0.2,1.2,0l4,1.9
		c0.4,0.1,0.6,0.6,0.4,0.9c-0.1,0.2-0.2,0.3-0.4,0.4l-4,1.9C6.1,6.4,5.7,6.4,5.3,6.2z" fill="#515151"/>
	<path d="M5.9,8.8C5.6,8.8,5.3,8.7,5,8.6L1.1,6.6C0.8,6.5,0.7,6.2,0.8,5.9c0.1-0.3,0.4-0.4,0.7-0.3c0,0,0.1,0,0.1,0l3.9,1.9
		c0.2,0.1,0.5,0.1,0.7,0l3.9-1.9c0.3-0.2,0.6-0.1,0.7,0.2c0.2,0.3,0.1,0.6-0.2,0.7c0,0-0.1,0-0.1,0L6.7,8.6C6.5,8.7,6.2,8.8,5.9,8.8
		z" fill="#515151"/>
	<path d="M5.9,11.1c-0.3,0-0.6-0.1-0.8-0.2L1.1,8.9C0.8,8.8,0.7,8.5,0.8,8.2s0.4-0.4,0.7-0.3c0,0,0.1,0,0.1,0l3.9,1.9
		C5.8,10,6,10,6.2,9.9L10.2,8c0.3-0.2,0.6-0.1,0.7,0.2c0.2,0.3,0.1,0.6-0.2,0.7c0,0-0.1,0-0.1,0l-3.9,1.9C6.5,11,6.2,11.1,5.9,11.1z"
		 fill="#515151"/>
</g>
</svg>
