<?xml version="1.0" encoding="utf-8"?>
<!-- Generator: Adobe Illustrator 24.1.0, SVG Export Plug-In . SVG Version: 6.00 Build 0)  -->
<svg version="1.1" id="图层_1" xmlns="http://www.w3.org/2000/svg" xmlns:xlink="http://www.w3.org/1999/xlink" x="0px" y="0px"
	 viewBox="0 0 16 16" style="enable-background:new 0 0 16 16;" xml:space="preserve">
<path d="M3.4,16H2.3c-0.2,0-0.3-0.1-0.4-0.2c-0.1-0.1-0.2-0.2-0.2-0.4V0.6c0-0.2,0.1-0.3,0.2-0.4S2.1,0,2.3,0h1.1
	c0.2,0,0.3,0.1,0.4,0.2C3.9,0.3,4,0.4,4,0.6v14.9c0,0.2-0.1,0.3-0.2,0.4C3.7,15.9,3.6,16,3.4,16z M6.9,12.6H5.7
	c-0.2,0-0.3-0.1-0.4-0.2c-0.1-0.1-0.2-0.2-0.2-0.4V4c0-0.2,0.1-0.3,0.2-0.4s0.2-0.2,0.4-0.2h1.1c0.2,0,0.3,0.1,0.4,0.2
	C7.4,3.7,7.4,3.8,7.4,4v8c0,0.2-0.1,0.3-0.2,0.4C7.1,12.5,7,12.6,6.9,12.6z M10.3,14.9H9.1c-0.2,0-0.3-0.1-0.4-0.2s-0.2-0.2-0.2-0.4
	V1.7c0-0.2,0.1-0.3,0.2-0.4S9,1.1,9.1,1.1h1.1c0.2,0,0.3,0.1,0.4,0.2s0.2,0.2,0.2,0.4v12.6c0,0.2-0.1,0.3-0.2,0.4
	S10.4,14.9,10.3,14.9z M13.7,11.4h-1.1c-0.2,0-0.3-0.1-0.4-0.2S12,11,12,10.9V5.1c0-0.2,0.1-0.3,0.2-0.4s0.2-0.2,0.4-0.2h1.1
	c0.2,0,0.3,0.1,0.4,0.2s0.2,0.2,0.2,0.4v5.7c0,0.2-0.1,0.3-0.2,0.4C14,11.4,13.9,11.4,13.7,11.4z" fill="#515151"/>
</svg>
