<?xml version="1.0" encoding="utf-8"?>
<!-- Generator: Adobe Illustrator 24.1.0, SVG Export Plug-In . SVG Version: 6.00 Build 0)  -->
<svg version="1.1" id="图层_1" xmlns="http://www.w3.org/2000/svg" xmlns:xlink="http://www.w3.org/1999/xlink" x="0px" y="0px"
	 viewBox="0 0 16 16" style="enable-background:new 0 0 16 16;" xml:space="preserve">
<style type="text/css">
	.st0{fill:#333333;}
</style>
<path class="st0" d="M14.1,14.6H1.9c-0.3,0-0.6-0.2-0.6-0.6c0,0,0,0,0,0V13c0-0.3,0.2-0.6,0.6-0.6c0,0,0,0,0,0h12.2
	c0.3,0,0.6,0.2,0.6,0.6l0,0v1.1C14.6,14.4,14.4,14.6,14.1,14.6C14.1,14.6,14.1,14.6,14.1,14.6z M14.1,3.6H1.9C1.6,3.6,1.4,3.3,1.4,3
	l0,0V1.9c0-0.3,0.2-0.6,0.6-0.6l0,0h12.2c0.3,0,0.6,0.2,0.6,0.6V3C14.6,3.3,14.4,3.6,14.1,3.6z"/>
<path class="st0" d="M10.8,10.2H5.2c-0.3,0-0.6-0.2-0.6-0.6c0,0,0,0,0,0V6.3c0-0.3,0.2-0.6,0.6-0.6l0,0h5.5c0.3,0,0.6,0.2,0.6,0.6
	v3.3C11.3,10,11.1,10.2,10.8,10.2L10.8,10.2z"/>
</svg>
