<?xml version="1.0" standalone="no"?><!DOCTYPE svg PUBLIC "-//W3C//DTD SVG 1.1//EN" "http://www.w3.org/Graphics/SVG/1.1/DTD/svg11.dtd"><svg t="1584884916320" class="icon" viewBox="0 0 1024 1024" version="1.1" xmlns="http://www.w3.org/2000/svg" p-id="48105" width="16" height="16" xmlns:xlink="http://www.w3.org/1999/xlink"><defs><style type="text/css"></style></defs><path d="M64 168V112c0-26.6 21.4-48 48-48h224l18.8-37.4c8-16.4 24.6-26.6 42.8-26.6h228.6c18.2 0 34.8 10.2 43 26.6L688 64h224c26.6 0 48 21.4 48 48v56c0 13.2-10.8 24-24 24H88C74.8 192 64 181.2 64 168z m830.4 113.4L853.6 934c-3.2 50.6-45.2 90-95.8 90H266.2c-50.6 0-92.6-39.4-95.8-90L129.6 281.4c-0.8-13.8 10.2-25.4 24-25.4h717c13.6 0 24.6 11.6 23.8 25.4z" p-id="48106" fill="#515151"></path></svg>