<?xml version="1.0" standalone="no"?><!DOCTYPE svg PUBLIC "-//W3C//DTD SVG 1.1//EN" "http://www.w3.org/Graphics/SVG/1.1/DTD/svg11.dtd"><svg t="1585490073855" class="icon" viewBox="0 0 1024 1024" version="1.1" xmlns="http://www.w3.org/2000/svg" p-id="10701" xmlns:xlink="http://www.w3.org/1999/xlink" width="16" height="16"><defs><style type="text/css"></style></defs><path d="M1024 768v73.142857q0 14.857143-10.857143 25.714286t-25.714286 10.857143H36.571429q-14.857143 0-25.714286-10.857143t-10.857143-25.714286v-73.142857q0-14.857143 10.857143-25.714286t25.714286-10.857143h950.857142q14.857143 0 25.714286 10.857143t10.857143 25.714286z m0-219.428571v73.142857q0 14.857143-10.857143 25.714285t-25.714286 10.857143H256q-14.857143 0-25.714286-10.857143t-10.857143-25.714285V548.571429q0-14.857143 10.857143-25.714286t25.714286-10.857143h731.428571q14.857143 0 25.714286 10.857143t10.857143 25.714286z m0-219.428572v73.142857q0 14.857143-10.857143 25.714286t-25.714286 10.857143H109.714286q-14.857143 0-25.714286-10.857143t-10.857143-25.714286V329.142857q0-14.857143 10.857143-25.714286t25.714286-10.857142h877.714285q14.857143 0 25.714286 10.857142t10.857143 25.714286z m0-219.428571v73.142857q0 14.857143-10.857143 25.714286t-25.714286 10.857142H329.142857q-14.857143 0-25.714286-10.857142t-10.857142-25.714286V109.714286q0-14.857143 10.857142-25.714286t25.714286-10.857143h658.285714q14.857143 0 25.714286 10.857143t10.857143 25.714286z" p-id="10702"></path></svg>