<?xml version="1.0" standalone="no"?><!DOCTYPE svg PUBLIC "-//W3C//DTD SVG 1.1//EN" "http://www.w3.org/Graphics/SVG/1.1/DTD/svg11.dtd"><svg t="1585490158541" class="icon" viewBox="0 0 1024 1024" version="1.1" xmlns="http://www.w3.org/2000/svg" p-id="14491" xmlns:xlink="http://www.w3.org/1999/xlink" width="16" height="16"><defs><style type="text/css"></style></defs><path d="M936.19430083 123.15522423l0 777.68955154a35.34952507 35.34952507 0 0 1-35.34952506 35.34952506l-70.69905014 0a35.34952507 35.34952507 0 0 1-35.34952506-35.34952506l0-777.68955154a35.34952507 35.34952507 0 0 1 35.34952506-35.34952506l70.69905014 0a35.34952507 35.34952507 0 0 1 35.34952506 35.34952506zM229.20379943 123.15522423l0 777.68955154a35.34952507 35.34952507 0 0 1-35.34952506 35.34952506l-70.69905014 0a35.34952507 35.34952507 0 0 1-35.34952506-35.34952506l0-777.68955154a35.34952507 35.34952507 0 0 1 35.34952506-35.34952506l70.69905014 0a35.34952507 35.34952507 0 0 1 35.34952506 35.34952506z" fill="#333333" p-id="14492"></path><path d="M653.39810029 335.25237466l0 353.49525068a35.34952507 35.34952507 0 0 1-35.34952509 35.34952508l-212.0971504 0a35.34952507 35.34952507 0 0 1-35.34952509-35.34952508l0-353.49525068a35.34952507 35.34952507 0 0 1 35.34952509-35.34952508l212.0971504 0a35.34952507 35.34952507 0 0 1 35.34952509 35.34952508z" fill="#333333" p-id="14493"></path></svg>