<?xml version="1.0" encoding="UTF-8"?>
<svg width="100px" height="100px" viewBox="0 0 100 100" version="1.1" xmlns="http://www.w3.org/2000/svg" xmlns:xlink="http://www.w3.org/1999/xlink">
    <!-- Generator: Sketch 59.1 (86144) - https://sketch.com -->
    <title>编组 2</title>
    <desc>Created with Sketch.</desc>
    <defs>
        <polygon id="path-1" points="0.8607 0.54 50.1787 0.54 50.1787 54 0.8607 54"></polygon>
        <polygon id="path-3" points="0 0.2837 8.3609 0.2837 8.3609 12.0877 0 12.0877"></polygon>
        <polygon id="path-5" points="0 0.5278 8.3609 0.5278 8.3609 12.3308 0 12.3308"></polygon>
        <polygon id="path-7" points="0 0.772 8.3609 0.772 8.3609 12.575 0 12.575"></polygon>
    </defs>
    <g id="页面-1" stroke="none" stroke-width="1" fill="none" fill-rule="evenodd">
        <g id="画板" transform="translate(-302.000000, -139.000000)">
            <g id="编组-2" transform="translate(302.000000, 139.000000)">
                <rect id="矩形" fill="#666666" x="0" y="0" width="100" height="100" rx="4"></rect>
                <g id="编组" transform="translate(23.000000, 22.500000)">
                    <g transform="translate(3.000000, 0.460000)">
                        <mask id="mask-2" fill="white">
                            <use xlink:href="#path-1"></use>
                        </mask>
                        <g id="Clip-2"></g>
                        <path d="M46.1927,0.5396 C48.3987,0.5396 50.1787,2.4306 50.1787,4.7506 L50.1787,4.7506 L50.1787,49.7896 C50.1787,52.1096 48.3987,54.0006 46.1927,54.0006 L46.1927,54.0006 L4.8567,54.0006 C2.6507,54.0006 0.8607,52.1096 0.8607,49.7896 L0.8607,49.7896 L0.8607,4.7506 C0.8607,2.4306 2.6507,0.5396 4.8567,0.5396 L4.8567,0.5396 Z M33.684,37.399 C33.686,37.63 33.499,37.814 33.269,37.814 L31.727,37.815 C31.39,37.815 31.193,38.195 31.388,38.47 L35.286,43.973 C35.453,44.206 35.798,44.207 35.964,43.974 L39.895,38.47 C40.092,38.195 39.895,37.813 39.557,37.813 L37.98,37.813 C37.755,37.813 37.57,37.637 37.565,37.412 C37.537,36.235 38.811,30.269 43.961,29.094 C44.119,29.059 44.036,28.82 43.875,28.797 C34.809,27.546 33.676,35.874 33.684,37.399 Z M30.0015,27.9028 C28.4855,28.6878 26.7705,29.1428 24.9485,29.1428 C23.1275,29.1428 21.4065,28.6878 19.8955,27.9028 C13.9205,29.9878 9.6295,35.6708 9.6295,42.3588 L31.1305,42.3588 L28.0335,37.9888 C27.7935,37.6498 28.0355,37.1818 28.4505,37.1818 L30.3465,37.1808 C30.6305,37.1808 30.8585,36.9548 30.8565,36.6718 C30.8515,35.6678 31.2505,32.2678 33.3295,29.5598 C32.2975,28.8808 31.1865,28.3138 30.0015,27.9028 Z M24.9487,10.0992 C20.4637,10.0992 16.8277,13.7352 16.8277,18.2202 C16.8277,22.7052 20.4637,26.3412 24.9487,26.3412 C29.4337,26.3412 33.0697,22.7052 33.0697,18.2202 C33.0697,13.7352 29.4337,10.0992 24.9487,10.0992 Z" id="形状结合" fill="#FFFFFF" mask="url(#mask-2)"></path>
                    </g>
                    <g transform="translate(0.000000, 5.460000)">
                        <mask id="mask-4" fill="white">
                            <use xlink:href="#path-3"></use>
                        </mask>
                        <g id="Clip-4"></g>
                        <path d="M7.6849,0.2837 L0.6769,0.2837 C0.3029,0.2837 -0.0001,0.7007 -0.0001,1.2137 L-0.0001,11.1577 C-0.0001,11.6697 0.3029,12.0877 0.6769,12.0877 L7.6849,12.0877 C8.0589,12.0877 8.3609,11.6697 8.3609,11.1577 L8.3609,1.2137 C8.3609,0.7007 8.0589,0.2837 7.6849,0.2837" id="Fill-3" fill="#FFFFFF" mask="url(#mask-4)"></path>
                    </g>
                    <g transform="translate(0.000000, 21.460000)">
                        <mask id="mask-6" fill="white">
                            <use xlink:href="#path-5"></use>
                        </mask>
                        <g id="Clip-6"></g>
                        <path d="M7.6849,0.5278 L0.6769,0.5278 C0.3029,0.5278 -0.0001,0.9448 -0.0001,1.4578 L-0.0001,11.4018 C-0.0001,11.9138 0.3029,12.3308 0.6769,12.3308 L7.6849,12.3308 C8.0589,12.3308 8.3609,11.9138 8.3609,11.4018 L8.3609,1.4578 C8.3609,0.9448 8.0589,0.5278 7.6849,0.5278" id="Fill-5" fill="#FFFFFF" mask="url(#mask-6)"></path>
                    </g>
                    <g transform="translate(0.000000, 37.460000)">
                        <mask id="mask-8" fill="white">
                            <use xlink:href="#path-7"></use>
                        </mask>
                        <g id="Clip-8"></g>
                        <path d="M7.6849,0.772 L0.6769,0.772 C0.3029,0.772 -0.0001,1.189 -0.0001,1.701 L-0.0001,11.645 C-0.0001,12.158 0.3029,12.575 0.6769,12.575 L7.6849,12.575 C8.0589,12.575 8.3609,12.158 8.3609,11.645 L8.3609,1.701 C8.3609,1.189 8.0589,0.772 7.6849,0.772" id="Fill-7" fill="#FFFFFF" mask="url(#mask-8)"></path>
                    </g>
                </g>
            </g>
        </g>
    </g>
</svg>