<?xml version="1.0" encoding="utf-8"?>
<!-- Generator: Adobe Illustrator 16.0.0, SVG Export Plug-In . SVG Version: 6.00 Build 0)  -->
<!DOCTYPE svg PUBLIC "-//W3C//DTD SVG 1.1//EN" "http://www.w3.org/Graphics/SVG/1.1/DTD/svg11.dtd">
<svg version="1.1" id="图层_1" xmlns="http://www.w3.org/2000/svg" xmlns:xlink="http://www.w3.org/1999/xlink" x="0px" y="0px"
	 width="128px" height="128px" viewBox="0 0 128 128" enable-background="new 0 0 128 128" xml:space="preserve">
<g>
	<path fill="#040000" d="M31.923,108.083c0,3.257-1.109,5.821-3.327,7.691c-2.218,1.872-4.977,2.81-8.272,2.81
		c-4.313,0-7.813-1.344-10.5-4.029l3.479-5.372c1.995,1.831,4.152,2.746,6.471,2.746c1.181,0,2.208-0.294,3.084-0.883
		c0.874-0.592,1.311-1.456,1.311-2.597c0-2.604-2.135-3.744-6.41-3.418l-1.586-3.419c0.325-0.407,0.987-1.291,1.983-2.655
		c0.997-1.362,1.862-2.461,2.594-3.296c0.733-0.834,1.486-1.618,2.259-2.351v-0.062c-0.652,0-1.639,0.021-2.961,0.062
		c-1.323,0.042-2.309,0.062-2.959,0.062v3.234h-6.471v-9.278h20.328V92.7l-5.8,7.02c2.076,0.489,3.725,1.485,4.944,2.992
		C31.313,104.219,31.923,106.008,31.923,108.083L31.923,108.083z"/>
	<path fill="#040000" d="M32.043,69.809v9.706H9.946C9.703,78.05,9.58,76.951,9.58,76.219c0-2.075,0.478-3.968,1.435-5.679
		c0.955-1.708,2.106-3.092,3.448-4.148c1.343-1.06,2.687-2.025,4.029-2.901c1.343-0.874,2.493-1.759,3.448-2.655
		c0.957-0.896,1.436-1.811,1.436-2.747c0-1.018-0.295-1.801-0.886-2.35c-0.589-0.55-1.394-0.824-2.41-0.824
		c-1.873,0-3.521,1.18-4.945,3.541l-5.189-3.602c0.977-2.076,2.432-3.693,4.365-4.852c1.934-1.16,4.079-1.74,6.44-1.74
		c2.971,0,5.474,0.844,7.509,2.533c2.034,1.688,3.053,3.978,3.053,6.868c0,2.035-0.692,3.895-2.076,5.585
		c-1.384,1.688-2.911,3.002-4.579,3.937c-1.668,0.938-3.205,1.963-4.608,3.083s-2.125,2.188-2.167,3.204h7.752v-3.662H32.043z"/>
	<path fill="#040000" d="M32.105,34.403v6.042H11.656v-6.042h6.53c0-1.669,0.012-4.142,0.032-7.417
		c0.02-3.276,0.03-5.748,0.03-7.417v-0.733h-0.122c-0.326,0.692-1.344,1.791-3.052,3.297l-4.334-4.64l8.302-7.752h6.471v24.662
		H32.105z"/>
	<path fill="#040000" d="M118.058,26.772v11.72c0,0.53-0.193,0.988-0.579,1.374c-0.388,0.387-0.846,0.579-1.375,0.579H41.872
		c-0.527,0-0.986-0.192-1.372-0.579c-0.388-0.386-0.581-0.844-0.581-1.374v-11.72c0-0.528,0.193-0.987,0.581-1.374
		c0.386-0.386,0.845-0.58,1.372-0.58h74.232c0.529,0,0.987,0.194,1.375,0.58C117.864,25.785,118.058,26.244,118.058,26.772
		L118.058,26.772z"/>
	<g>
		<path fill="#040000" d="M61.889,87.328H41.872c-0.569,0-1.037,0.185-1.403,0.55c-0.366,0.368-0.55,0.834-0.55,1.403v11.72
			c0,0.53,0.193,0.988,0.581,1.375c0.386,0.387,0.845,0.579,1.372,0.579H61.91c-0.005-0.105-0.021-0.21-0.021-0.315V87.328z"/>
		<path fill="#040000" d="M92.061,59.281L92.061,59.281c0.393,0,0.786,0.103,1.139,0.307C92.847,59.384,92.453,59.281,92.061,59.281
			z"/>
		<path fill="#040000" d="M118.058,58.027c0-0.53-0.193-0.986-0.579-1.374c-0.388-0.386-0.846-0.58-1.375-0.58H95.458l22.6,13.044
			V58.027z"/>
		<path fill="#040000" d="M90.921,59.588c0.195-0.113,0.405-0.188,0.619-0.239C91.326,59.4,91.116,59.475,90.921,59.588z"/>
		<path fill="#040000" d="M65.114,69.666l23.548-13.592H41.872c-0.569,0-1.037,0.182-1.403,0.55c-0.366,0.365-0.55,0.834-0.55,1.403
			v11.721c0,0.529,0.193,0.986,0.581,1.374c0.386,0.385,0.845,0.579,1.372,0.579h21.106C63.52,70.884,64.238,70.177,65.114,69.666z"
			/>
		<path fill="#040000" d="M116.919,73.279l-2.734-1.578L93.199,59.588c-0.353-0.205-0.746-0.307-1.139-0.307
			c-0.176,0-0.35,0.028-0.521,0.068c-0.214,0.051-0.424,0.125-0.619,0.239L69.935,71.701l-2.733,1.578
			c-0.703,0.41-1.139,1.161-1.139,1.978v12.071v15.312c0,0.107,0.027,0.211,0.042,0.315c0.098,0.689,0.486,1.311,1.097,1.661
			l23.72,13.692c0.353,0.205,0.745,0.308,1.14,0.308c0.393,0,0.786-0.103,1.139-0.308l23.72-13.692
			c0.705-0.405,1.139-1.161,1.139-1.977v-1.639v-11.72V75.257C118.058,74.44,117.624,73.689,116.919,73.279z M79.069,71.701
			L92.061,64.2l12.992,7.501l6.157,3.556L92.061,86.313L72.911,75.257L79.069,71.701z M89.778,112.383l-16.318-9.428l-2.832-1.636
			V87.328v-8.121l14.06,8.121l5.091,2.94v12.687V112.383z M94.342,112.38v-9.425V90.267l5.091-2.938l14.062-8.118v0.003v8.115
			v13.997l-2.824,1.63L94.342,112.38z"/>
		<path fill="#FFFFFF" d="M91.54,59.35c0.171-0.04,0.345-0.068,0.521-0.068C91.885,59.281,91.711,59.31,91.54,59.35z"/>
	</g>
</g>
</svg>
