<?xml version="1.0" standalone="no"?><!DOCTYPE svg PUBLIC "-//W3C//DTD SVG 1.1//EN" "http://www.w3.org/Graphics/SVG/1.1/DTD/svg11.dtd"><svg t="1598259001790" class="icon" viewBox="0 0 1024 1024" version="1.1" xmlns="http://www.w3.org/2000/svg" p-id="1284" xmlns:xlink="http://www.w3.org/1999/xlink" width="200" height="200"><defs><style type="text/css"></style></defs><path d="M365.4 368.6H197.3c-0.3 0-0.5-0.2-0.5-0.5V195.2c0-0.3 0.2-0.5 0.5-0.5h168.1c0.3 0 0.5 0.2 0.5 0.5V368c0 0.4-0.2 0.6-0.5 0.6zM593.3 368.6H425.2c-0.3 0-0.5-0.2-0.5-0.5V195.2c0-0.3 0.2-0.5 0.5-0.5h168.1c0.3 0 0.5 0.2 0.5 0.5V368c0 0.4-0.2 0.6-0.5 0.6zM821.2 368.6H653.1c-0.3 0-0.5-0.2-0.5-0.5V195.2c0-0.3 0.2-0.5 0.5-0.5h168.1c0.3 0 0.5 0.2 0.5 0.5V368c0 0.4-0.2 0.6-0.5 0.6z" fill="#666666" p-id="1285"></path><path d="M365.4 599H197.3c-0.3 0-0.5-0.2-0.5-0.5V425.7c0-0.3 0.2-0.5 0.5-0.5h168.1c0.3 0 0.5 0.2 0.5 0.5v172.8c0 0.3-0.2 0.5-0.5 0.5zM593.3 599H425.2c-0.3 0-0.5-0.2-0.5-0.5V425.7c0-0.3 0.2-0.5 0.5-0.5h168.1c0.3 0 0.5 0.2 0.5 0.5v172.8c0 0.3-0.2 0.5-0.5 0.5zM821.2 599H653.1c-0.3 0-0.5-0.2-0.5-0.5V425.7c0-0.3 0.2-0.5 0.5-0.5h168.1c0.3 0 0.5 0.2 0.5 0.5v172.8c0 0.3-0.2 0.5-0.5 0.5z" fill="#666666" p-id="1286"></path><path d="M365.4 829.4H197.3c-0.3 0-0.5-0.2-0.5-0.5V656.1c0-0.3 0.2-0.5 0.5-0.5h168.1c0.3 0 0.5 0.2 0.5 0.5v172.8c0 0.3-0.2 0.5-0.5 0.5zM593.3 829.4H425.2c-0.3 0-0.5-0.2-0.5-0.5V656.1c0-0.3 0.2-0.5 0.5-0.5h168.1c0.3 0 0.5 0.2 0.5 0.5v172.8c0 0.3-0.2 0.5-0.5 0.5zM821.2 829.4H653.1c-0.3 0-0.5-0.2-0.5-0.5V656.1c0-0.3 0.2-0.5 0.5-0.5h168.1c0.3 0 0.5 0.2 0.5 0.5v172.8c0 0.3-0.2 0.5-0.5 0.5z" fill="#666666" p-id="1287"></path></svg>