<?xml version="1.0" encoding="UTF-8"?>
<svg width="100px" height="100px" viewBox="0 0 100 100" version="1.1" xmlns="http://www.w3.org/2000/svg" xmlns:xlink="http://www.w3.org/1999/xlink">
    <!-- Generator: Sketch 59.1 (86144) - https://sketch.com -->
    <title>编组 5</title>
    <desc>Created with Sketch.</desc>
    <defs>
        <polygon id="path-1" points="0 0.243386645 48.1560435 0.243386645 48.1560435 36.0128205 0 36.0128205"></polygon>
        <polygon id="path-3" points="0.202518109 0.353645208 42.719208 0.353645208 42.719208 28.8403996 0.202518109 28.8403996"></polygon>
    </defs>
    <g id="页面-1" stroke="none" stroke-width="1" fill="none" fill-rule="evenodd">
        <g id="画板" transform="translate(-302.000000, -661.000000)">
            <g id="编组-5" transform="translate(302.000000, 661.000000)">
                <rect id="矩形备份-3" fill="#666666" x="0" y="0" width="100" height="100" rx="4"></rect>
                <g id="编组" transform="translate(23.500000, 21.000000)">
                    <g transform="translate(0.000000, 20.399162)">
                        <mask id="mask-2" fill="white">
                            <use xlink:href="#path-1"></use>
                        </mask>
                        <g id="Clip-2"></g>
                        <path d="M32.7555609,33.1220914 L37.5342621,25.7214568 L30.2116553,32.1977624 C30.0966144,32.300799 29.935557,32.3258079 29.8005089,32.2637859 L25.4599637,30.2620733 C25.2478882,30.1640384 25.1768629,29.8909411 25.311911,29.6848678 L30.1416304,22.3112428 L22.7630036,28.7645401 C22.6469623,28.8655761 22.485905,28.8915854 22.3528576,28.8285629 L17.2830527,26.4907307 C17.0679762,26.3916954 16.9989516,26.1145968 17.1370007,25.9095238 L22.0707572,18.5909183 L14.7491507,25.0662235 C14.6331094,25.1692602 14.4730524,25.1942691 14.337004,25.1332474 L10.7897411,23.4966648 C10.5766653,23.3976295 10.5066403,23.1235319 10.6426888,22.9184589 L15.5244267,15.5718436 L8.14579989,22.0241406 C8.02975858,22.1251765 7.87070196,22.1501854 7.73565388,22.0881634 L3.44112504,20.1074582 C3.44112504,20.1074582 -0.332218269,18.8930259 0.0229081553,16.1420465 C0.372032443,13.4540896 2.03562468,11.1762787 4.18839106,10.6620957 C4.78860474,10.5180444 8.59095837,8.94248351 9.58731307,6.78171428 L12.6023864,0.243386645 L48.1560435,16.6382232 L43.9225364,29.5278119 L43.7384708,30.1160213 C43.1402579,32.0247007 42.0818811,33.7463136 40.6813825,35.1248044 C39.781062,36.0101196 38.4675944,36.2612089 37.368203,35.7540284 L32.9066147,33.6962958 C32.6945392,33.5992613 32.6235139,33.3261641 32.7555609,33.1220914" id="Fill-1" fill="#FFFFFF" mask="url(#mask-2)"></path>
                    </g>
                    <path d="M40.6216613,19.087095 L30.1249244,14.2463717 L35.8809736,1.76492831 C36.5832236,0.242386289 38.3858653,-0.421850178 39.9064066,0.279399466 L44.8931819,2.5792182 C46.4147236,3.28046784 47.07896,5.08310958 46.3777104,6.60465125 L40.6216613,19.087095 Z" id="Fill-3" fill="#FFFFFF"></path>
                    <g transform="translate(9.003205, 9.395245)">
                        <mask id="mask-4" fill="white">
                            <use xlink:href="#path-3"></use>
                        </mask>
                        <g id="Clip-6"></g>
                        <path d="M39.7776608,28.6468983 L1.40800125,10.9525991 C-0.0685243946,10.2713566 -0.222579238,8.23363116 1.13390367,7.33831243 L10.9894122,0.839999038 C11.8397149,0.279799608 12.9210999,0.197770406 13.8474297,0.623922115 L40.2608328,12.8052587 C41.2431825,13.2574196 41.8984158,14.210759 41.9684407,15.2901433 L42.7157067,26.6281796 C42.8177431,28.1977384 41.2061693,29.3051326 39.7776608,28.6468983" id="Fill-5" fill="#FFFFFF" mask="url(#mask-4)"></path>
                    </g>
                </g>
            </g>
        </g>
    </g>
</svg>