<?xml version="1.0" standalone="no"?><!DOCTYPE svg PUBLIC "-//W3C//DTD SVG 1.1//EN" "http://www.w3.org/Graphics/SVG/1.1/DTD/svg11.dtd"><svg t="1617958370156" class="icon" viewBox="0 0 1129 1024" version="1.1" xmlns="http://www.w3.org/2000/svg" p-id="1433" width="70.5625" height="64" xmlns:xlink="http://www.w3.org/1999/xlink"><defs><style type="text/css"></style></defs><path d="M708.502069 810.548966H227.222069a17.655172 17.655172 0 0 1-17.655172-17.655173V198.797241a17.655172 17.655172 0 0 1 17.655172-17.655172h481.28a17.655172 17.655172 0 0 1 17.655172 17.655172v594.096552a17.655172 17.655172 0 0 1-17.655172 17.655173z m-463.624828-35.310345h445.969656V216.452414H244.877241z" fill="#808080" p-id="1434"></path><path d="M551.017931 695.966897h-149.186207a17.655172 17.655172 0 0 1-12.358621-4.943449l-112.816551-110.697931a17.655172 17.655172 0 0 1-5.296552-12.711724V423.724138a17.655172 17.655172 0 0 1 5.12-12.535172l102.223448-102.223449a17.655172 17.655172 0 0 1 12.535173-5.12h151.128276a17.655172 17.655172 0 0 1 12.535172 5.12l105.931034 105.931035a17.655172 17.655172 0 0 1 5.12 12.535172v134.17931a17.655172 17.655172 0 0 1-4.060689 11.299311L564.965517 689.611034a17.655172 17.655172 0 0 1-13.947586 6.355863z m-141.241379-35.310345h133.649655l88.275862-105.931035v-120.231724l-96.044138-96.22069h-137.18069l-91.806896 91.806897v130.118621z" fill="#808080" p-id="1435"></path><path d="M468.391724 553.842759a17.655172 17.655172 0 0 1-12.535172-5.296552l-41.136552-42.01931a17.655172 17.655172 0 0 1 0-24.893794l42.725517-42.548965a17.655172 17.655172 0 0 1 24.893793 0l41.489656 41.489655a17.655172 17.655172 0 0 1 0 25.070345l-43.078621 43.078621a17.655172 17.655172 0 0 1-12.358621 5.12zM452.325517 494.344828l16.242759 16.772413 17.655172-17.655172-16.242758-16.772414zM289.015172 307.906207a17.655172 17.655172 0 0 1-17.655172-17.655173V247.172414a17.655172 17.655172 0 0 1 35.310345 0v42.548965a17.655172 17.655172 0 0 1-17.655173 18.184828zM648.827586 307.906207a17.655172 17.655172 0 0 1-17.655172-17.655173V247.172414a17.655172 17.655172 0 0 1 35.310345 0v42.548965a17.655172 17.655172 0 0 1-17.655173 18.184828zM648.827586 761.467586a17.655172 17.655172 0 0 1-17.655172-17.655172v-42.548966a17.655172 17.655172 0 0 1 35.310345 0v42.548966a17.655172 17.655172 0 0 1-17.655173 17.655172zM289.015172 761.467586a17.655172 17.655172 0 0 1-17.655172-17.655172v-42.548966a17.655172 17.655172 0 0 1 35.310345 0v42.548966a17.655172 17.655172 0 0 1-17.655173 17.655172zM927.073103 810.548966H743.106207a17.655172 17.655172 0 0 1 0-35.310345h166.311724V216.452414H708.502069a17.655172 17.655172 0 0 1 0-35.310345h218.571034a17.655172 17.655172 0 0 1 17.655173 17.655172v594.096552a17.655172 17.655172 0 0 1-17.655173 17.655173z" fill="#808080" p-id="1436"></path><path d="M769.588966 680.606897h-51.376552a17.655172 17.655172 0 1 1 0-35.310345h43.07862l88.275863-105.931035v-121.114483l-81.566897-95.337931h-52.965517a17.655172 17.655172 0 0 1 0-35.310344H776.827586a17.655172 17.655172 0 0 1 13.417931 6.17931l91.10069 105.931034a17.655172 17.655172 0 0 1 4.237241 11.475863v134.17931a17.655172 17.655172 0 0 1-4.237241 11.29931l-97.809655 117.053793a17.655172 17.655172 0 0 1-13.947586 6.885518zM867.575172 307.906207a17.655172 17.655172 0 0 1-17.655172-17.655173V247.172414a17.655172 17.655172 0 0 1 35.310345 0v42.548965a17.655172 17.655172 0 0 1-17.655173 18.184828zM867.575172 761.467586a17.655172 17.655172 0 0 1-17.655172-17.655172v-42.548966a17.655172 17.655172 0 0 1 35.310345 0v42.548966a17.655172 17.655172 0 0 1-17.655173 17.655172z" fill="#808080" p-id="1437"></path></svg>