<?xml version="1.0" encoding="UTF-8"?>
<svg width="100px" height="100px" viewBox="0 0 100 100" version="1.1" xmlns="http://www.w3.org/2000/svg" xmlns:xlink="http://www.w3.org/1999/xlink">
    <!-- Generator: Sketch 59.1 (86144) - https://sketch.com -->
    <title>mdpi/编组</title>
    <desc>Created with Sketch.</desc>
    <defs>
        <polygon id="path-1" points="0.730255007 0.654939859 43.4336161 0.654939859 43.4336161 45 0.730255007 45"></polygon>
    </defs>
    <g id="页面-1" stroke="none" stroke-width="1" fill="none" fill-rule="evenodd">
        <g id="画板" transform="translate(-302.000000, -835.000000)">
            <g id="编组-6" transform="translate(302.000000, 835.000000)">
                <g id="编组" transform="translate(1.000000, 0.000000)">
                    <path d="M27.8449574,26.5806229 L22.5209128,26.5806229 C21.7621811,26.5806229 21.1345198,26.0690189 21.1160592,25.4155103 C21.0274481,21.9929921 25.325082,4.64887223 42.716838,1.23568985 C43.246658,1.1292613 42.9660565,0.434674953 42.4251601,0.371191255 C11.8100574,-3.2679184 7.98870778,20.9417767 8.01639872,25.3781669 C8.02009084,26.0484801 7.39242955,26.5843572 6.61339112,26.5843572 L1.40564844,26.5843572 C0.266627791,26.5843572 -0.397954756,27.6915876 0.261089603,28.4907353 L13.4253622,44.4904945 C13.9847192,45.1682763 15.1532769,45.1701435 15.7144799,44.4942288 L28.9876702,28.4907353 C29.6522528,27.6915876 28.9876702,26.5806229 27.8449574,26.5806229" id="Fill-1" fill="#8F8F8F"></path>
                    <g transform="translate(52.000000, 55.000000)">
                        <mask id="mask-2" fill="white">
                            <use xlink:href="#path-1"></use>
                        </mask>
                        <g id="Clip-4"></g>
                        <path d="M15.7798667,18.806312 L21.0672,18.804472 C21.8225333,18.804472 22.4440333,19.310472 22.4623667,19.954472 C22.5522,23.325352 18.2842,40.418952 1.01236667,43.782472 C0.484366667,43.887352 0.764866667,44.569992 1.3002,44.634392 C31.7042,48.220552 35.4992,24.363112 35.4735333,19.991272 C35.4680333,19.328872 36.0913667,18.802632 36.8668667,18.802632 L42.0368667,18.800792 C43.1680333,18.800792 43.8298667,17.709672 43.1735333,16.923992 L30.1000333,1.157032 C29.5445333,0.489112 28.3840333,0.487272 27.8267,1.153352 L14.6450333,16.923992 C13.9850333,17.711512 14.6450333,18.806312 15.7798667,18.806312" id="Fill-3" fill="#8F8F8F" mask="url(#mask-2)"></path>
                    </g>
                    <path d="M91.8983347,49 L54.1016653,49 C51.2825201,49 49,46.7129997 49,43.8966529 L49,7.10334708 C49,4.28513642 51.2825201,2 54.1016653,2 L91.8983347,2 C94.7156166,2 97,4.28513642 97,7.10334708 L97,43.8966529 C97,46.7129997 94.7156166,49 91.8983347,49" id="Fill-5" fill="#8F8F8F"></path>
                    <path d="M42.8983347,97 L5.10166531,97 C2.28252009,97 0,94.7129997 0,91.8966529 L0,55.1033471 C0,52.2851364 2.28252009,50 5.10166531,50 L42.8983347,50 C45.7156166,50 48,52.2851364 48,55.1033471 L48,91.8966529 C48,94.7129997 45.7156166,97 42.8983347,97" id="Fill-7" fill="#8F8F8F"></path>
                </g>
            </g>
        </g>
    </g>
</svg>
