<?xml version="1.0" encoding="utf-8"?>
<!-- Generator: Adobe Illustrator 22.0.0, SVG Export Plug-In . SVG Version: 6.00 Build 0)  -->
<svg version="1.1" id="图层_1" xmlns="http://www.w3.org/2000/svg" xmlns:xlink="http://www.w3.org/1999/xlink" x="0px" y="0px"
	 viewBox="0 0 200 200" style="enable-background:new 0 0 200 200;" xml:space="preserve">
<style type="text/css">
	.st0{fill:#808080;}
</style>
<path class="st0" d="M40.1,31.1l16,15.9c13.8-6.3,28.7-9.5,43.9-9.4c41.4,0,74.8,20.8,100,62.4c-10.5,19.1-25.4,35.3-43.6,47.3
	l9.9,9.9l-12.1,12.1l-29.9-29.9l-16-15.9L76.6,91.7l-16-15.9L41,55.3L28.6,42.9C28.6,42.9,40.1,31.1,40.1,31.1z M28.6,64.6
	l26.1,25.6c-0.7,3.2-1.1,6.5-1.1,9.9c0,25.7,20.8,46.5,46.4,46.6c3.4,0,6.7-0.4,10-1.1l14.3,14.3c-8,1.8-16.1,2.7-24.3,2.7
	c-41.7,0-75.1-20.9-100-62.4C7.7,86.8,17.3,74.9,28.6,64.6z M100.7,53.7c-10.3-0.2-20.4,3.1-28.6,9.4l15.6,15.6
	c3.7-2.3,7.9-3.5,12.3-3.6c13.8,0,24.9,11.1,25,24.9c-0.1,4.4-1.3,8.7-3.6,12.4l15.6,16.1c15.8-20.1,12.3-49.2-7.8-65
	C121,57.2,111,53.7,100.7,53.7L100.7,53.7z"/>
</svg>
