<?xml version="1.0" encoding="UTF-8"?>
<svg width="200px" height="200px" viewBox="0 0 200 200" version="1.1" xmlns="http://www.w3.org/2000/svg" xmlns:xlink="http://www.w3.org/1999/xlink">
    <!-- Generator: Sketch 59 (86127) - https://sketch.com -->
    <title>user-group</title>
    <desc>Created with Sketch.</desc>
    <g id="页面-1" stroke="none" stroke-width="1" fill="none" fill-rule="evenodd">
        <path d="M62.5566406,-1.42108547e-14 L62.5566406,0.0259765625 C65.7046875,0.0271484375 68.7615234,0.4171875 71.6822266,1.15039062 L71.4240234,1.09550781 C74.5996094,1.85839844 77.3648437,2.84472656 79.9867187,4.08457031 L79.7210937,3.97167969 C82.3572266,5.19238281 84.6238281,6.5640625 86.71875,8.15078125 L86.625,8.0828125 C88.4023437,9.4265625 89.9439453,10.9421875 91.2710937,12.6337891 L91.3119141,12.6878906 C93.8431641,15.9857422 95.8554687,19.840625 97.1351562,24.0158203 L97.2029297,24.2728516 C97.5384766,25.3060547 97.9814453,26.9630859 98.3748047,28.6390625 L98.4888672,29.2158203 C93.7478516,31.1298828 92.5798828,32.1298828 89.3619141,34.4277344 C86.6779297,36.8988281 84.9669922,38.4738281 82.7738281,41.9087891 C81.1228516,43.9738281 78.8417969,49.0988281 77.896875,52.7587891 C77.4771132,54.3539224 76.0027811,60.3845388 75.6900664,63.9640277 L92.191,80.463 L92.3011719,80.3324219 C92.2832609,79.6366685 92.2744711,78.9407103 92.2748047,78.2447266 C92.2748047,74.5775391 92.5144531,70.9664062 92.9789062,67.4259766 L92.935,67.83 L93.0489297,66.9266814 C93.5635682,62.9881716 94.304534,59.4264369 95.2826172,55.9640625 L95.1521484,56.5044922 C96.2390625,52.3798828 97.9128906,48.7640625 100.108203,45.5310547 L100.029102,45.6544922 C101.85293,42.7568359 104.038477,40.2871094 106.563672,38.2160156 L106.617187,38.1734375 C108.75957,36.4275391 111.198828,34.9142578 113.820703,33.7349609 L114.028125,33.6515625 C116.226758,32.6601562 118.782422,31.8875 121.452734,31.4580078 L121.629102,31.4345703 C123.833594,31.0740234 126.378516,30.8648437 128.970898,30.8585937 L128.977148,30.8585937 L128.977148,30.8865234 L128.970898,30.8865234 C132.119531,30.8880859 135.176367,31.278125 138.09707,32.0113281 L137.838867,31.9564453 C141.014453,32.7193359 143.779687,33.7056641 146.401562,34.9455078 L146.135937,34.8326172 C148.77207,36.0533203 151.038672,37.425 153.133594,39.0117187 L153.039844,38.94375 C154.817187,40.2875 156.358789,41.803125 157.685937,43.4947266 L157.726758,43.5488281 C160.258008,46.8466797 162.270312,50.7015625 163.55,54.8767578 L163.617773,55.1337891 C164.652148,58.4945312 165.559375,62.5771484 166.161133,66.7583984 L166.214844,67.2128906 C166.775839,71.624152 167.050763,76.0670956 167.037891,80.5138672 C167.747371,81.0827294 168.325429,81.7983055 168.732422,82.6115234 L168.748828,82.6478516 C169.186172,83.5909418 169.505258,84.5844781 169.698828,85.6058594 C169.971922,87.0682106 170.014757,88.5642627 169.825781,90.0398437 C169.65918,92.0625 169.185938,93.9314453 168.450977,95.6625 L168.495703,95.5439453 C167.896094,96.7828125 167.132422,97.8421875 166.216797,98.7478516 L166.21582,98.7488281 C165.411421,99.5563511 164.432464,100.168542 163.354297,100.538281 L163.301953,100.553906 C162.536133,103.474414 162.01543,105.229687 161.466406,106.972461 L161.782031,105.810937 C161.210937,107.235937 160.641016,108.629883 160.008008,110.00293 C159.408789,111.242187 158.644727,112.301367 157.728125,113.206836 L157.726953,113.208008 C156.093793,114.576758 154.674368,115.811403 153.298033,117.051998 L152.81,117.493 L152.914062,117.400977 C151.497551,119.022086 150.633488,121.051799 150.446875,123.196484 L150.444141,123.234961 C150.224414,124.404492 150.098633,125.75 150.098633,127.124609 L150.106348,127.713892 L150.127,128.258 L150.173583,128.708594 C150.368254,130.398169 150.82238,131.963753 151.496094,133.40625 L151.456836,133.312695 C152.363281,135.200781 153.554297,136.806641 154.994336,138.149023 L155.003906,138.157812 C156.958263,139.88775 159.200988,141.261374 161.630078,142.216211 L161.781836,142.26875 C164.033398,143.264258 166.831836,144.27207 169.705469,145.10293 L170.205859,145.226758 C173.862305,146.274219 176.808984,147.310156 179.682031,148.488477 L179.073828,148.267773 C181.792076,149.333998 184.166941,150.651318 186.321025,152.23068 L186.813,152.598 L186.737891,152.54375 C188.964844,154.294922 190.626563,156.673633 191.463086,159.4125 L191.488867,159.510742 C192.018164,161.38457 192.421484,163.594922 192.619141,165.864258 L192.628906,166.002734 C192.883028,168.597962 193.009635,171.204079 193.009635,173.811719 C193.021232,176.092842 192.862386,178.371269 192.534151,180.627878 L192.51,180.782 L198.530483,186.802561 L185.802561,199.530483 L2.66190488,16.3898269 L15.3898269,3.66190488 L31.0346306,19.3066609 C31.8082328,17.6758156 32.6946066,16.1349695 33.6876953,14.6724609 L33.6085937,14.7958984 C35.4324219,11.8982422 37.6179687,9.42851562 40.1431641,7.35742187 L40.1966797,7.31484375 C42.3390625,5.56894531 44.7783203,4.05566406 47.4001953,2.87636719 L47.6076172,2.79296875 C49.80625,1.8015625 52.3619141,1.02890625 55.0322266,0.599414062 L55.2085937,0.575976562 C57.4130859,0.215429687 59.9580078,0.00625 62.5503906,-1.42108547e-14 L62.5566406,-1.42108547e-14 Z M102.028239,139.814865 L156.167741,193.955561 C155.339902,194.035665 154.500368,194.113885 153.659961,194.189062 L152.346094,194.283789 C149.480078,194.567383 145.052344,194.891016 140.605078,195.142187 L139.551172,195.189648 C135.497266,195.410742 131.950195,195.518555 128.973242,195.518555 C125.996289,195.518555 122.512305,195.410547 118.522266,195.189648 C114.53125,194.967578 110.477344,194.669727 106.23418,194.283594 C100.016211,193.73418 95.6837891,193.266992 91.3695313,192.741211 L93.6291016,192.965625 C88.3449219,192.362695 84.4496094,191.813867 80.5804688,191.187695 L82.228125,191.407617 C78.8082031,190.862695 75.9570313,190.311523 73.5501953,189.760547 C71.8800781,189.508008 70.3833984,188.928125 69.0707031,188.086328 L69.1162109,188.113672 C67.6080078,185.866016 66.7091797,183.099609 66.7091797,180.123047 L66.709375,180.062695 C66.5253906,178.225 66.4205078,176.090625 66.4205078,173.932031 C66.4205078,170.273421 66.7219903,166.685381 67.3013361,163.19108 L67.416,162.529 L67.4405919,162.256217 C67.8060447,158.710912 69.4746767,155.595454 71.9539062,153.362695 L71.9664062,153.351562 C74.4728516,151.253906 77.3904297,149.539062 80.5652344,148.351758 L80.7703125,148.28457 C83.3888672,147.24082 86.8683594,146.089844 90.4171875,145.105859 L91.2214844,144.915625 C94.6209259,144.019311 97.8516032,142.575062 100.786523,140.639648 C101.213724,140.374394 101.627438,140.099502 102.028239,139.814865 Z M23.4987288,61.287525 L90.9713788,128.755284 C90.9619425,128.782139 90.9524076,128.809345 90.9427734,128.836914 C90.3177734,130.162891 89.8707031,131.254883 88.4728516,132.783008 C87.3078125,134.099023 85.8478516,135.444922 83.5318359,136.893945 C81.4958984,138.254883 78.5578125,139.941992 73.9667969,141.169922 C70.3867187,142.089844 67.7558594,143.037891 63.5158203,144.538867 C58.5837891,146.659961 58.1998047,147.106836 55.3978516,149.05293 C50.6965196,152.795706 50.176352,158.284791 50.1489589,158.860138 L50.147,158.881 C50.0888929,159.189333 49.59375,162.739475 49.44375,164.173047 C46.2304834,163.967336 43.0201609,163.717964 39.8136719,163.425 C33.5957031,162.875586 29.2632812,162.408398 24.9490234,161.882617 L27.2085937,162.107031 C21.9244141,161.504102 18.0291016,160.955273 14.1599609,160.329102 L15.8076172,160.549023 C12.3876953,160.004102 9.53652344,159.45293 7.1296875,158.901953 C5.59874674,158.670459 4.21354167,158.163905 2.98219604,157.432689 L2.69570312,157.255078 C1.1875,155.007422 0.288671875,152.241016 0.288671875,149.264453 L0.288867187,149.204102 C0.104882812,147.366406 -5.68434189e-14,145.232031 -5.68434189e-14,143.073437 C-5.68434189e-14,139.414827 0.301482476,135.826788 0.880828292,132.332486 L0.995,131.668 L1.02008407,131.397623 C1.38553689,127.852318 3.05416891,124.73686 5.53339844,122.504102 L5.54589844,122.492969 C8.05234375,120.395312 10.9699219,118.680469 14.1447266,117.493164 L14.3498047,117.425977 C16.9683594,116.382227 20.4478516,115.23125 23.9966797,114.247266 L24.8009766,114.057031 C28.2004181,113.160717 31.4310954,111.716468 34.3660156,109.781055 C36.2542969,108.608594 37.8791016,107.247852 39.2898437,105.689453 L39.3070312,105.670117 C40.3328077,104.532517 41.1569996,103.228262 41.7441406,101.813477 L41.7769531,101.724023 C42.3334945,100.425606 42.6141027,99.025691 42.6009766,97.6130859 C42.5953504,96.2778372 42.5505709,94.9431123 42.4667083,93.6106316 L42.405,92.738 L42.3934544,92.4955967 C42.242749,90.3069419 41.337002,88.3386328 39.9359375,86.8386719 C38.4265204,85.3067011 36.8547646,83.8271333 35.2289062,82.4083984 L35.1277344,82.321875 C34.2272387,81.4184874 33.505065,80.3534816 32.9990234,79.1826172 L32.9738281,79.1167969 C32.393534,77.7236927 31.8235315,76.3263239 31.2638672,74.9248047 C31.0318359,74.3486328 30.5111328,72.5933594 30.0191406,70.8259766 L29.7439453,69.6677734 C28.9185547,69.3957031 28.2033203,69.0033203 27.5769531,68.5041016 L27.5908203,68.5148437 C26.8390599,67.8427289 26.1681341,67.0853483 25.5916016,66.2580078 L25.5638672,66.2158203 C24.7560547,64.9890625 24.1236328,63.5619141 23.7466797,62.034375 L23.7269531,61.9398437 C23.6446712,61.7280217 23.5684624,61.5103549 23.4987288,61.287525 Z M67.464,162.256 L67.416,162.529 L67.4064453,162.637695 L67.464,162.256 Z M50.1507812,158.891992 C50.1491099,158.911021 50.1479076,158.914241 50.1477415,158.902676 L50.147,158.881 L50.1508135,158.868308 C50.1526703,158.862425 50.1527232,158.869883 50.1507812,158.891992 Z M1.04570312,131.381836 L0.995,131.668 L0.9859375,131.779102 L1.04570312,131.381836 Z M42.397,92.632 L42.405,92.738 L42.4109375,92.8429687 L42.397,92.632 Z" id="形状结合" fill="#808080" fill-rule="nonzero"></path>
    </g>
</svg>