<?xml version="1.0" encoding="UTF-8"?>
<svg width="175px" height="175px" viewBox="0 0 175 175" version="1.1" xmlns="http://www.w3.org/2000/svg" xmlns:xlink="http://www.w3.org/1999/xlink">
    <!-- Generator: Sketch 59 (86127) - https://sketch.com -->
    <title>leave</title>
    <desc>Created with Sketch.</desc>
    <g id="页面-1" stroke="none" stroke-width="1" fill="none" fill-rule="evenodd">
        <path d="M86.0561488,123.890529 L136.454825,174.290386 C122.651447,176.805829 108.238936,172.487914 98.0486871,162.297666 C87.8581926,152.107171 83.5403152,137.694211 86.0561488,123.890529 Z M37.304275,75.1384442 L80.5031353,118.337946 C79.32078,122.603724 78.6934118,127.074913 78.6899809,131.656372 C78.6905704,147.689126 86.3785309,162.737122 99.3409153,172.134568 L99.7899809,172.456372 L91.7899809,172.889705 C87.3233143,173.323038 83.2899811,173.323038 79.9566477,173.323038 L73.9566477,173.323038 C70.5233143,173.323038 66.6233143,173.123038 62.1233143,172.889705 C57.6233143,172.656372 52.8899811,172.423038 48.1566477,172.023038 C43.4233143,171.623038 38.6899811,171.056372 33.9566477,170.589705 C29.2233143,170.123038 24.9233141,169.456372 21.0899809,168.956372 C17.2566477,168.456372 13.9899811,167.789705 11.3566477,167.289705 C9.56466748,167.023871 7.82968077,166.460563 6.22331432,165.623038 C4.88998093,164.723038 3.98998093,161.889705 3.32331432,157.123038 C2.70502687,151.027507 2.97450107,144.874512 4.12331432,138.856372 C4.50657315,136.342355 5.50251367,133.961256 7.02331432,131.923038 C8.59095839,130.132657 10.4232623,128.592623 12.4566477,127.356372 C14.6641055,126.019795 16.9975348,124.903322 19.4233143,124.023038 C21.9566477,123.256372 24.6899811,122.556372 27.3233143,121.756372 C29.9566475,120.956372 32.5899809,120.189705 35.0899809,119.289705 C37.4196601,118.40793 39.6534204,117.29105 41.7566477,115.956372 C43.832853,114.748306 45.7385612,113.26858 47.4233143,111.556372 C48.6313049,110.319521 49.6228867,108.888489 50.3566477,107.323038 C50.8110054,106.146876 51.1013578,104.914574 51.2201551,103.660806 L51.2566477,103.189705 L51.2566477,98.1563716 C51.0785682,95.8026332 50.1025555,93.5801465 48.4899809,91.8563716 C46.9233143,90.4230384 45.0899809,88.7563716 43.1233143,87.089705 C42.0535816,86.1772841 41.1997132,85.0387929 40.6233143,83.7563716 C39.8529739,82.343753 39.1953748,80.8725143 38.6566477,79.3563716 C38.2557318,77.993258 37.7476604,76.5872823 37.304275,75.1384442 Z M97.0233143,4.05637159 C99.9849,5.30002997 102.765458,6.93697156 105.289981,8.92303839 C108.16987,11.1030953 110.69915,13.7110644 112.789981,16.6563716 C115.271274,20.0397798 117.143748,23.8298484 118.323314,27.8563716 C119.414063,31.7400388 120.238204,35.6936889 120.789981,39.689705 C121.223314,44.089705 121.456648,48.3230384 121.456648,52.689705 C122.405894,53.7498645 123.161795,54.9683323 123.689981,56.289705 C124.207129,57.6443056 124.499862,59.0741904 124.556648,60.5230384 C124.650262,62.3129265 124.436043,64.1056063 123.923314,65.8230384 C123.533771,67.4553867 122.8071,68.9882077 121.789981,70.3230384 C121.145262,71.2303324 120.395623,72.0582914 119.556648,72.789705 C118.771945,73.2752785 117.932845,73.6668582 117.056648,73.9563716 C116.556648,75.9230382 115.889981,77.5563716 115.389981,79.2563716 C114.851254,80.7725143 114.193655,82.243753 113.423314,83.6563716 C113.323314,83.8563716 113.089981,83.989705 113.089981,84.189705 C109.160669,85.480061 105.475024,87.2256282 102.083767,89.3564189 L106.917996,94.1894212 C113.395774,90.4241937 120.871149,88.3230384 128.689981,88.3230384 C152.62232,88.3230384 172.023314,107.724032 172.023314,131.656372 C172.023314,139.475203 169.922159,146.950579 166.156932,153.428356 L172.145707,159.417785 L159.417785,172.145707 L10.2182541,22.9461761 L22.9461761,10.2182541 L37.0881438,24.3618533 C38.1579656,21.6380125 39.5567666,19.0499373 41.2566477,16.6563716 C43.298988,13.6853696 45.7831967,11.0437902 48.6233143,8.82303839 C51.1949223,6.86167107 54.020679,5.25816622 57.0233143,4.05637159 C69.808176,-1.35212386 84.2384527,-1.35212386 97.0233143,4.05637159 Z M126.123314,102.756372 C123.241062,102.756372 120.810876,104.691899 120.061623,107.334087 L132.423,119.695 L132.423314,109.056372 C132.423314,105.576978 129.602708,102.756372 126.123314,102.756372 Z M31.5435845,69.3774302 L35.7175705,73.5521061 C35.2959983,73.3559449 34.8860602,73.1347985 34.4899809,72.889705 C33.6510056,72.1582914 32.9013671,71.3303324 32.2566477,70.4230384 C32.0002547,70.0865575 31.7623178,69.7374957 31.5435845,69.3774302 Z" id="形状结合" fill="#808080" fill-rule="nonzero"></path>
    </g>
</svg>