<?xml version="1.0" encoding="UTF-8"?>
<svg width="100px" height="100px" viewBox="0 0 100 100" version="1.1" xmlns="http://www.w3.org/2000/svg" xmlns:xlink="http://www.w3.org/1999/xlink">
    <!-- Generator: Sketch 59.1 (86144) - https://sketch.com -->
    <title>编组 4</title>
    <desc>Created with Sketch.</desc>
    <defs>
        <polygon id="path-1" points="0.204925926 0.136481481 28.2518704 0.136481481 28.2518704 28.1831204 0.204925926 28.1831204"></polygon>
        <polygon id="path-3" points="0 0.318592593 39.8413083 0.318592593 39.8413083 25.2906296 0 25.2906296"></polygon>
    </defs>
    <g id="页面-1" stroke="none" stroke-width="1" fill="none" fill-rule="evenodd">
        <g id="画板" transform="translate(-302.000000, -487.000000)">
            <g id="编组-4" transform="translate(302.000000, 487.000000)">
                <rect id="矩形备份-2" fill="#666666" x="0" y="0" width="100" height="100" rx="4"></rect>
                <g id="编组" transform="translate(22.500000, 20.000000)">
                    <g transform="translate(12.222222, 0.882241)">
                        <mask id="mask-2" fill="white">
                            <use xlink:href="#path-1"></use>
                        </mask>
                        <g id="Clip-2"></g>
                        <path d="M28.2518704,14.1601574 C28.2518704,21.9049722 21.9727037,28.1831204 14.2278889,28.1831204 C6.48307407,28.1831204 0.204925926,21.9049722 0.204925926,14.1601574 C0.204925926,6.41534259 6.48307407,0.136175926 14.2278889,0.136175926 C21.9727037,0.136175926 28.2518704,6.41534259 28.2518704,14.1601574" id="Fill-1" fill="#FFFFFF" mask="url(#mask-2)"></path>
                    </g>
                    <path d="M51.3389537,45.2000185 L49.7592315,43.1415926 C49.5341389,42.8482593 49.1175648,42.7830741 48.8191389,43.0020556 C47.2567315,44.1458519 40.7494167,51.7857593 44.3783981,59.6823333 C44.4883981,59.9237222 44.0942315,60.0540926 43.904787,59.8677037 C33.1869167,49.294463 42.9158056,39.4708519 44.9141389,37.9522407 C45.2166389,37.7220556 45.2706204,37.2952963 45.0394167,36.9938148 L43.4953426,34.9822407 C43.1571944,34.5412222 43.4566389,33.9036296 44.010713,33.8822407 L55.0962685,33.4554815 C55.5668241,33.4371481 55.9141389,33.8883519 55.7766389,34.3375185 L52.535713,44.9820556 C52.3737685,45.5147407 51.6781204,45.641037 51.3389537,45.2000185" id="Fill-3" fill="#FFFFFF"></path>
                    <g transform="translate(0.000000, 31.437796)">
                        <mask id="mask-4" fill="white">
                            <use xlink:href="#path-3"></use>
                        </mask>
                        <g id="Clip-6"></g>
                        <path d="M39.5729074,6.51424074 C39.8754074,6.28405556 39.9293889,5.8572963 39.6981852,5.55683333 L38.1520741,3.54424074 C37.8149444,3.10322222 38.1143889,2.46562963 38.668463,2.44424074 L39.6727222,2.40553704 C38.2467963,1.58053704 36.7485556,0.869611111 35.1718889,0.318592593 C32.5614259,1.68340741 29.5995741,2.46461111 26.4503148,2.46461111 C23.3010556,2.46461111 20.3392037,1.68340741 17.7297593,0.318592593 C7.40809259,3.92312963 -0.000611111111,13.7385926 -0.000611111111,25.2906296 L35.9418889,25.2906296 C29.7197593,15.9762778 37.7742037,7.88109259 39.5729074,6.51424074" id="Fill-5" fill="#FFFFFF" mask="url(#mask-4)"></path>
                    </g>
                </g>
            </g>
        </g>
    </g>
</svg>