<?xml version="1.0" standalone="no"?><!DOCTYPE svg PUBLIC "-//W3C//DTD SVG 1.1//EN" "http://www.w3.org/Graphics/SVG/1.1/DTD/svg11.dtd"><svg t="1585497899173" class="icon" viewBox="0 0 1024 1024" version="1.1" xmlns="http://www.w3.org/2000/svg" p-id="11770" xmlns:xlink="http://www.w3.org/1999/xlink" width="16" height="16"><defs><style type="text/css"></style></defs><path d="M512 1024a512 512 0 0 1-512-512 512 512 0 0 1 512-512 512 512 0 0 1 512 512 512 512 0 0 1-512 512z m-56.896-170.688H568.96v-113.728H455.04v113.728z m83.456-682.24c-128.576 0-253.632 63.68-253.632 227.2l113.28 0.32c0-55.808 36.032-114.944 112.96-114.944 45.888 0 112.512 18.56 112.512 86.72 0 62.72-20.352 75.392-81.792 120.32-59.328 40.32-89.6 93.056-87.488 158.08v33.6h115.648c0-102.976 72.768-115.328 128.384-200.256 30.08-43.84 41.152-82.24 41.152-136.192-0.064-84.864-80.32-174.848-200.96-174.848z" p-id="11771"></path></svg>