<?xml version="1.0" standalone="no"?><!DOCTYPE svg PUBLIC "-//W3C//DTD SVG 1.1//EN" "http://www.w3.org/Graphics/SVG/1.1/DTD/svg11.dtd"><svg t="1615519496292" class="icon" viewBox="0 0 1024 1024" version="1.1" xmlns="http://www.w3.org/2000/svg" p-id="14876" xmlns:xlink="http://www.w3.org/1999/xlink" width="200" height="200"><defs><style type="text/css"></style></defs><path d="M256 192h576v128H256zM256 384h160v128H256zM464 384h160v128h-160zM672 384h160v128h-160zM256 544h160v128H256zM464 544h160v128h-160zM672 544h160v128h-160zM464 704h160v128h-160zM672 704h160v128h-160z" p-id="14877" fill="#FCFCFC"></path><path d="M254.4 616c-88.32 0-160 71.68-160 160s71.68 160 160 160 160-71.68 160-160-71.36-160-160-160z m86.4 175.68l-58.24 58.24c-8.32 8.32-22.08 8.32-30.4 0a21.632 21.632 0 0 1 0-30.4l22.08-22.08H182.72c-11.84 0-21.12-9.6-21.12-21.44 0-11.84 9.6-21.44 21.12-21.44h91.52l-21.76-21.76a21.632 21.632 0 0 1 0-30.4c8.32-8.32 22.08-8.32 30.4 0l57.92 57.92c4.16 3.84 7.04 9.6 7.04 15.68-0.32 6.08-2.88 11.52-7.04 15.68z" p-id="14878" fill="#FCFCFC"></path><path d="M868.16 129.6H219.84c-15.36 0-27.84 12.16-27.84 27.52v449.92c10.24-5.44 20.8-10.24 32-13.76V189.44c0-14.08 11.2-25.28 25.28-25.28h589.44c14.08 0 25.28 11.2 25.28 25.28v647.68c0 14.08-11.2 25.28-25.28 25.28H447.36c-7.04 12.48-15.36 24.32-24.96 34.88h446.08c15.36 0 27.84-12.48 27.84-27.84V157.12a28.064 28.064 0 0 0-28.16-27.52z" p-id="14879" fill="#FCFCFC"></path></svg>