<?xml version="1.0" standalone="no"?><!DOCTYPE svg PUBLIC "-//W3C//DTD SVG 1.1//EN" "http://www.w3.org/Graphics/SVG/1.1/DTD/svg11.dtd"><svg t="1590155742559" class="icon" viewBox="0 0 1024 1024" version="1.1" xmlns="http://www.w3.org/2000/svg" p-id="28058" xmlns:xlink="http://www.w3.org/1999/xlink" width="200" height="200"><defs><style type="text/css"></style></defs><path d="M725.333333 503.466667a221.866667 221.866667 0 1 0 221.866667 221.866666 221.866667 221.866667 0 0 0-221.866667-221.866666z m97.621334 310.101333a32.256 32.256 0 0 1-44.373334 10.410667l-82.432-51.2a32.256 32.256 0 0 1-15.189333-26.453334 36.352 36.352 0 0 1-1.024-7.68v-129.024a32.256 32.256 0 0 1 64.512 0v117.418667l68.266667 42.154667a32.426667 32.426667 0 0 1 10.24 44.373333z" p-id="28059" fill="#808080"></path><path d="M469.333333 725.333333a256 256 0 0 1 176.128-243.029333c0-1.024 1.194667-1.706667 1.706667-2.730667a156.501333 156.501333 0 0 0 10.069333-22.528c2.56-8.704 5.973333-17.066667 8.533334-27.136a60.245333 60.245333 0 0 0 12.8-5.973333 72.362667 72.362667 0 0 0 11.434666-12.629333 61.610667 61.610667 0 0 0 10.922667-23.04 80.213333 80.213333 0 0 0 3.242667-27.136 68.266667 68.266667 0 0 0-4.437334-21.674667 62.293333 62.293333 0 0 0-11.434666-18.432c0-22.357333-1.194667-44.032-3.413334-66.56a453.461333 453.461333 0 0 0-12.629333-60.586667A184.832 184.832 0 0 0 643.925333 136.533333a181.248 181.248 0 0 0-38.4-39.594666A183.125333 183.125333 0 0 0 563.2 72.021333a262.826667 262.826667 0 0 0-204.8 0 183.125333 183.125333 0 0 0-43.008 24.405334A181.248 181.248 0 0 0 277.674667 136.533333a184.832 184.832 0 0 0-27.477334 57.856 453.461333 453.461333 0 0 0-12.629333 60.586667c-2.218667 22.528-3.413333 44.202667-3.413333 66.56a62.293333 62.293333 0 0 0-11.434667 18.432 68.266667 68.266667 0 0 0-5.290667 21.674667 80.213333 80.213333 0 0 0 3.242667 27.136 61.610667 61.610667 0 0 0 10.922667 23.04 72.362667 72.362667 0 0 0 11.434666 12.629333 60.245333 60.245333 0 0 0 12.8 5.973333c2.56 9.386667 5.973333 18.432 8.533334 27.136a156.501333 156.501333 0 0 0 10.069333 22.528 48.64 48.64 0 0 0 12.8 17.066667c10.069333 8.533333 19.456 17.066667 27.477333 24.405333a53.077333 53.077333 0 0 1 14.165334 32.256v25.770667A70.485333 70.485333 0 0 1 324.266667 600.746667a79.018667 79.018667 0 0 1-15.018667 21.674666 138.24 138.24 0 0 1-29.013333 22.528 187.733333 187.733333 0 0 1-34.133334 17.066667c-12.8 4.608-26.282667 8.533333-39.765333 12.629333s-27.477333 7.68-40.448 11.605334a201.728 201.728 0 0 0-35.669333 17.066666A119.466667 119.466667 0 0 0 102.4 726.698667a79.36 79.36 0 0 0-14.848 35.498666 324.266667 324.266667 0 0 0-4.096 93.525334c3.413333 24.405333 8.021333 38.912 14.848 43.52a83.285333 83.285333 0 0 0 26.282667 8.533333c13.482667 2.56 30.208 5.973333 49.834666 8.533333s41.642667 5.973333 65.877334 8.362667 48.469333 5.290667 72.704 7.338667 48.469333 3.242667 71.509333 4.437333 43.008 2.218667 60.586667 2.218667h30.72c17.066667 0 37.717333 0 60.586666-2.218667l40.96-2.218667A256 256 0 0 1 469.333333 725.333333z" p-id="28060" fill="#808080"></path></svg>