<?xml version="1.0" standalone="no"?><!DOCTYPE svg PUBLIC "-//W3C//DTD SVG 1.1//EN" "http://www.w3.org/Graphics/SVG/1.1/DTD/svg11.dtd"><svg t="1585643347420" class="icon" viewBox="0 0 1092 1024" version="1.1" xmlns="http://www.w3.org/2000/svg" p-id="3255" xmlns:xlink="http://www.w3.org/1999/xlink" width="213.28125" height="200"><defs><style type="text/css"></style></defs><path d="M1013.572 730.557c7.315 7.08 8.986 15.27 5.01 24.495-4.054 9.46-10.973 14.156-20.994 14.156H861.933l71.41 168.974c2.383 5.88 2.383 11.687 0 17.413-2.387 5.644-6.44 9.856-12.088 12.404l-62.897 26.636c-5.887 2.386-11.69 2.386-17.413 0-5.646-2.382-9.861-6.436-12.406-12.087l-67.832-160.462-110.684 110.923c-4.454 4.453-9.857 6.76-15.981 6.76-2.86 0-5.646-0.636-8.51-1.83-9.463-4.053-14.153-10.97-14.153-20.993V383.072c0-9.94 4.69-16.936 14.154-20.994 2.865-1.191 5.65-1.83 8.509-1.83 6.44 0 11.687 2.226 15.981 6.76l363.55 363.55z m0 0" p-id="3256" fill="#808080"></path><path d="M498.39 928.038H144.136V95.96h832.076v369.203h69.339V95.96c0-34.666-34.671-69.337-69.339-69.337H144.137c-34.666 0-69.339 34.67-69.339 69.337v832.077c0 34.667 34.673 69.338 69.339 69.338h354.252v-69.338z" p-id="3257" fill="#808080"></path></svg>