<?xml version="1.0" standalone="no"?><!DOCTYPE svg PUBLIC "-//W3C//DTD SVG 1.1//EN" "http://www.w3.org/Graphics/SVG/1.1/DTD/svg11.dtd"><svg t="1595217552207" class="icon" viewBox="0 0 1024 1024" version="1.1" xmlns="http://www.w3.org/2000/svg" p-id="1144" xmlns:xlink="http://www.w3.org/1999/xlink" width="200" height="200"><defs><style type="text/css"></style></defs><path d="M178.688 277.504c-76.288 73.216-114.688 175.104-114.688 302.08 0 16.896 13.824 30.72 30.72 30.72s30.72-13.824 30.72-30.72c0-110.08 32.256-196.608 95.744-258.048 87.552-84.48 211.456-100.352 264.192-103.424v87.04c0 12.288 13.824 19.456 23.552 12.8l167.936-112.64c9.216-6.144 9.216-19.456 0-25.6L508.928 66.56c-10.24-6.656-23.552 0.512-23.552 12.8v77.312c-59.904 3.072-202.752 20.48-306.688 120.832z" p-id="1145"></path><path d="M289.28 487.936v390.656c0 45.056 36.352 81.408 81.408 81.408h507.904c45.056 0 81.408-36.352 81.408-81.408V487.936c0-45.056-36.352-81.408-81.408-81.408H370.688c-45.056-0.512-81.408 36.352-81.408 81.408z" p-id="1146"></path></svg>