<?xml version="1.0" standalone="no"?><!DOCTYPE svg PUBLIC "-//W3C//DTD SVG 1.1//EN" "http://www.w3.org/Graphics/SVG/1.1/DTD/svg11.dtd"><svg t="1595219282480" class="icon" viewBox="0 0 1024 1024" version="1.1" xmlns="http://www.w3.org/2000/svg" p-id="12431" xmlns:xlink="http://www.w3.org/1999/xlink" width="200" height="200"><defs><style type="text/css"></style></defs><path d="M591.811285 79.452215h115.685559v274.198279H591.811285z m-99.886516 314.740453h248.86758a41.325598 41.325598 0 0 0 47.201275-47.070704v-261.141218a41.129742 41.129742 0 0 0-47.070704-47.070705H243.253044a40.999171 40.999171 0 0 0-46.809563 46.417852v261.859356a41.195027 41.195027 0 0 0 46.678993 46.678993h248.86758z m20.107874 590.570864h348.884667a40.281033 40.281033 0 0 0 45.17743-44.851004V557.014217a40.476889 40.476889 0 0 0-44.851004-45.242716H162.495123a40.346318 40.346318 0 0 0-44.655149 44.459293v383.87759a60.845904 60.845904 0 0 0 1.175136 13.840484 40.019892 40.019892 0 0 0 44.132866 30.814664h348.884667m405.944023 39.171183H106.023334a37.604335 37.604335 0 0 0-5.54925-1.893274 115.620274 115.620274 0 0 1-94.206695-80.170354c-2.741983-7.703666-4.178259-15.929614-6.202104-23.894421V106.023334a40.73803 40.73803 0 0 0 1.893274-5.614536A116.011986 116.011986 0 0 1 92.639847 3.264265c4.439401-1.175135 8.944087-2.154415 13.448773-3.264265h697.899904a154.073318 154.073318 0 0 1 72.597259 43.610583q51.575391 49.420975 101.192221 100.865796a160.667134 160.667134 0 0 1 46.221996 75.535097v698.030475a39.75875 39.75875 0 0 0-1.893274 5.549251 116.011986 116.011986 0 0 1-90.681288 97.209818c-4.439401 1.175135-8.944087 2.154415-13.383487 3.19898" p-id="12432"></path></svg>