<?xml version="1.0" encoding="utf-8"?>
<!-- Generator: Adobe Illustrator 22.0.0, SVG Export Plug-In . SVG Version: 6.00 Build 0)  -->
<svg version="1.1" id="mx_n_1585643313697" xmlns="http://www.w3.org/2000/svg" xmlns:xlink="http://www.w3.org/1999/xlink" x="0px"
	 y="0px" viewBox="0 0 200 200" style="enable-background:new 0 0 200 200;" xml:space="preserve">
<style type="text/css">
	.st0{fill:#808080;}
</style>
<path class="st0" d="M100,31.8C54.5,31.8,15.5,60,0,100c15.5,40,54.5,68.2,100,68.2c45.5,0,84.6-28.2,100-68.2
	C184.6,60,145.5,31.8,100,31.8 M100,145.5c-25.4,0-45.5-20-45.5-45.5c0-25.5,20-45.5,45.5-45.5c25.5,0,45.5,20,45.5,45.5
	C145.5,125.5,125.5,145.5,100,145.5 M100,72.7c-15.4,0-27.3,11.8-27.3,27.3c0,15.4,11.8,27.3,27.3,27.3c15.5,0,27.3-11.8,27.3-27.3
	C127.3,84.6,115.5,72.7,100,72.7"/>
</svg>
