<?xml version="1.0" standalone="no"?><!DOCTYPE svg PUBLIC "-//W3C//DTD SVG 1.1//EN" "http://www.w3.org/Graphics/SVG/1.1/DTD/svg11.dtd"><svg t="1618198961094" class="icon" viewBox="0 0 1024 1024" version="1.1" xmlns="http://www.w3.org/2000/svg" p-id="2263" width="64" height="64" xmlns:xlink="http://www.w3.org/1999/xlink"><defs><style type="text/css"></style></defs><path d="M390.6 292c-30.4 0-59.8-9-85-26-11.4-7.7-14.5-23.3-6.7-34.7 7.7-11.4 23.3-14.5 34.7-6.7 16.9 11.4 36.6 17.4 57 17.4 33.5 0 64.9-16.5 84-44.2 4.2-6.1 11-10.1 18.4-10.7 7.4-0.7 14.7 2 20 7.3 16.1 16.2 37.5 25.2 60.2 25.2 20.5 0 40.2-7.4 55.5-20.8 10.4-9.1 26.2-8 35.3 2.4 9.1 10.4 8 26.2-2.4 35.3-24.5 21.4-55.9 33.2-88.5 33.2-27 0-52.7-7.9-74.7-22.6-28.2 28.4-66.9 44.9-107.8 44.9z" fill="#C4C4C6" p-id="2264"></path><path d="M449 894.7c-0.7 0-1.4 0-2.2-0.1-11-1.2-18.9-11-17.8-22l28.6-266.8c1.2-11 11-18.9 22-17.8 11 1.2 18.9 11 17.8 22l-28.6 266.8c-1 10.3-9.7 17.9-19.8 17.9z" fill="#C4C4C6" p-id="2265"></path><path d="M545.4 895.6c-10.1 0-18.8-7.6-19.9-17.9l-28.6-266.8c-1.2-11 6.8-20.8 17.8-22 11-1.2 20.8 6.8 22 17.8l28.6 266.8c1.2 11-6.8 20.8-17.8 22-0.7 0.1-1.4 0.1-2.1 0.1z" fill="#C4C4C6" p-id="2266"></path><path d="M495.2 632.8c-28.7 0-52.1-23.4-52.1-52.1 0-28.7 23.4-52.1 52.1-52.1 28.7 0 52.1 23.4 52.1 52.1 0 28.7-23.4 52.1-52.1 52.1z m0-64.2c-6.7 0-12.1 5.4-12.1 12.1s5.4 12.1 12.1 12.1 12.1-5.4 12.1-12.1-5.4-12.1-12.1-12.1z" fill="#C4C4C6" p-id="2267"></path><path d="M684.8 900.5H303.6c-55.6 0-100.9-45.3-100.9-100.9V673.3c0-67.6 36.6-130.1 95.5-163.2l74.4-41.8c-19.9-14.1-37.3-31.6-51.3-52-23.8-34.6-36.4-75.2-36.4-117.3 0-55.4 21.6-107.4 60.7-146.5 39.1-39.1 91.2-60.7 146.6-60.7 55.5 0 107.5 21.5 146.6 60.6 39 39.1 60.5 91.1 60.5 146.6 0 42.2-12.6 82.7-36.4 117.4-13.8 20.1-30.8 37.4-50.3 51.3l73.4 38.9c61.5 32.5 99.7 96 99.7 165.5v127.6c0 55.5-45.3 100.8-100.9 100.8zM492.1 141.8c-86.7 0-157.3 70.5-157.3 157.2 0 64.5 38.7 121.8 98.6 145.9 8.9 3.6 15 12 15.6 21.6s-4.3 18.7-12.7 23.4l-113.6 63.8c-43.1 24.2-69.9 70.1-69.9 119.6v126.3c0 28.1 22.8 50.9 50.9 50.9h381.2c28.1 0 50.9-22.8 50.9-50.9V672c0-51-28-97.4-73.1-121.3l-114.3-60.5c-8.6-4.6-13.8-13.7-13.3-23.4s6.6-18.3 15.7-21.9c59.8-24 98.5-81.3 98.5-145.9-0.1-86.7-70.6-157.2-157.2-157.2z" fill="#C4C4C6" p-id="2268"></path><path d="M853.6 892.3H739.1c-13.8 0-25-11.2-25-25s11.2-25 25-25h114.5c24.7 0 44.8-20.1 44.8-44.8V679.9c0-46.2-25.4-88.3-66.2-109.9L727 514.4c-8.6-4.5-13.8-13.7-13.3-23.4s6.6-18.3 15.6-21.9c54.3-21.9 89.4-73.8 89.4-132.4 0-78.6-64-142.6-142.6-142.7-12.2 0-24.3 1.5-35.7 4.5-13.4 3.5-27-4.5-30.5-17.9-3.5-13.4 4.5-27 17.9-30.5 15.5-4.1 31.8-6.1 48.3-6.1 51.6 0.1 100 20.1 136.3 56.4 36.3 36.3 56.3 84.7 56.3 136.3 0 39.2-11.7 76.9-33.9 109.1-12.2 17.7-27.1 33.1-44.1 45.8l64.8 34.2c57.3 30.3 92.8 89.4 92.8 154.1v117.6c0.1 52.3-42.4 94.8-94.7 94.8z" fill="#C4C4C6" p-id="2269"></path><path d="M248.5 892.3H134c-52.3 0-94.8-42.5-94.8-94.8V679.9c0-64.7 35.6-123.8 92.8-154.1l64.9-34.3c-17-12.6-31.9-28-44.1-45.7-22.1-32.2-33.9-69.9-33.9-109.1 0-51.6 20-100 56.3-136.3 36.3-36.3 84.7-56.3 136.3-56.4 16.6 0 32.8 2.1 48.3 6.1 13.4 3.5 21.4 17.1 17.9 30.5s-17.1 21.4-30.5 17.9c-11.4-3-23.4-4.5-35.7-4.5-78.6 0.1-142.6 64.1-142.6 142.7 0 58.6 35.1 110.5 89.4 132.4 9 3.6 15.1 12.2 15.6 21.9s-4.7 18.8-13.3 23.4L155.4 570c-40.8 21.6-66.2 63.7-66.2 109.9v117.6c0 24.7 20.1 44.8 44.8 44.8h114.5c13.8 0 25 11.2 25 25s-11.2 25-25 25z" fill="#C4C4C6" p-id="2270"></path><path d="M650.1 646h-51c-11 0-20-9-20-20s9-20 20-20h51c11 0 20 9 20 20s-9 20-20 20z" fill="#C4C4C6" p-id="2271"></path></svg>