<?xml version="1.0" standalone="no"?><!DOCTYPE svg PUBLIC "-//W3C//DTD SVG 1.1//EN" "http://www.w3.org/Graphics/SVG/1.1/DTD/svg11.dtd"><svg t="1590155844148" class="icon" viewBox="0 0 1024 1024" version="1.1" xmlns="http://www.w3.org/2000/svg" p-id="36587" xmlns:xlink="http://www.w3.org/1999/xlink" width="200" height="200"><defs><style type="text/css"></style></defs><path d="M337.736 12.273c16.121 0.008 31.772 2.005 46.726 5.759l-1.322-0.281c16.259 3.906 30.417 8.956 43.841 15.304l-1.36-0.578c13.497 6.25 25.102 13.273 35.828 21.397l-0.48-0.348c9.1 6.88 16.993 14.64 23.788 23.301l0.209 0.277c12.96 16.885 23.263 36.622 29.815 57.999l0.347 1.316c1.718 5.29 3.986 13.774 6 22.355l0.584 2.953c-24.274 9.8-30.254 14.92-46.73 26.685-13.742 12.652-22.502 20.716-33.731 38.303-8.453 10.573-20.132 36.813-24.97 55.552-2.176 8.269-9.887 39.818-11.356 58.051-1.044 8.97-4.291 31.365-3.241 63.949-4.562 6.042-7.66 11.382-10.378 17.674-2.284 6.717-3.174 12.17-4.219 20.209-0.855 9.856 0.435 13.896 3.569 25.943 4.065 12.38 3.487 10.982 9.405 21.893 8.571 12.744 15.58 15.181 21.407 17.674 2.54 9.144 7.782 26.916 7.782 26.916s4.864 12.037 8.755 21.463c5.668 12.124 11.028 16.41 11.028 16.41s13.005 11.771 24.643 23.153c3.369 4.05 12.237 13.998 12.646 30.715 1.295 13.184 0.973 10.952 0.973 24.422 0.051 10.547-1.004 11.848-4.219 21.048-3.2 6.789-5.489 12.38-12.646 20.204-5.965 6.738-13.44 13.629-25.298 21.048-10.424 6.968-25.467 15.606-48.973 21.893-18.33 4.71-31.8 9.564-53.509 17.249-25.252 10.86-27.218 13.148-41.564 23.112-26.22 20.874-27.039 52.357-26.865 50.376s-2.78 19.011-3.62 27.039a1819.523 1819.523 0 0 1-49.306-3.83c-31.836-2.813-54.018-5.205-76.107-7.897l11.569 1.149c-27.055-3.087-46.999-5.897-66.809-9.103l8.436 1.126c-17.51-2.79-32.108-5.612-44.431-8.433-8.551-1.293-16.214-4.262-22.935-8.572l0.233 0.14c-7.722-11.508-12.324-25.672-12.324-40.912l0.001-0.326v0.017c-0.942-9.409-1.479-20.337-1.479-31.389 0-20.435 1.837-40.44 5.354-59.861l-0.306 2.034c1.441-18.96 10.136-35.648 23.283-47.488l0.064-0.057c12.833-10.74 27.771-19.52 44.026-25.599l1.05-0.344c13.407-5.344 31.222-11.237 49.392-16.275l4.118-0.974a165.692 165.692 0 0 0 48.973-21.893c9.668-6.003 17.987-12.97 25.21-20.949l0.088-0.099a68.956 68.956 0 0 0 12.478-19.746l0.168-0.458a52.195 52.195 0 0 0 4.219-21.048 349.706 349.706 0 0 0-1.047-25.607l0.074 1.184c-0.38-11.917-5.121-22.658-12.672-30.742l0.025 0.027a439.27 439.27 0 0 0-24.125-22.71l-0.518-0.443a51.975 51.975 0 0 1-10.899-16.073l-0.129-0.337a1570.088 1570.088 0 0 1-8.755-21.463c-1.188-2.95-3.854-11.937-6.373-20.986l-1.409-5.93c-4.226-1.393-7.888-3.402-11.095-5.958l0.071 0.055a66.497 66.497 0 0 1-10.236-11.555l-0.142-0.216c-4.136-6.281-7.374-13.588-9.304-21.409l-0.101-0.484c-2.401-6.181-3.792-13.334-3.792-20.813 0-1.806 0.081-3.593 0.24-5.358l-0.017 0.228c0.605-7.421 2.103-14.289 4.395-20.782l-0.177 0.574c2.499-6.81 6.018-12.677 10.435-17.741l-0.057 0.066a407.76 407.76 0 0 1-0.135-10.689c0-18.776 1.227-37.265 3.605-55.392l-0.229 2.132c2.646-22.045 6.631-41.726 12.024-60.817l-0.668 2.767c5.565-21.118 14.135-39.631 25.375-56.184l-0.405 0.632c9.338-14.836 20.528-27.481 33.457-38.085l0.274-0.218c10.969-8.939 23.458-16.687 36.882-22.725l1.062-0.427c11.257-5.076 24.342-9.032 38.014-11.231l0.903-0.12c11.287-1.846 24.317-2.917 37.59-2.949h0.032v0.133zM677.78 170.281c16.121 0.008 31.772 2.005 46.726 5.759l-1.322-0.281c16.259 3.906 30.417 8.956 43.841 15.304l-1.36-0.578c13.497 6.25 25.102 13.273 35.828 21.397l-0.48-0.348c9.1 6.88 16.993 14.64 23.788 23.301l0.209 0.277c12.96 16.885 23.263 36.622 29.815 57.999l0.347 1.316c5.296 17.207 9.941 38.11 13.022 59.518l0.275 2.327a527.702 527.702 0 0 1 4.214 68.101 32.288 32.288 0 0 1 8.676 10.74l0.084 0.186a64.585 64.585 0 0 1 4.864 15.145 73.089 73.089 0 0 1 0.65 22.702c-0.853 10.356-3.276 19.925-7.039 28.788l0.229-0.607c-3.07 6.343-6.98 11.767-11.668 16.404l-0.005 0.005a38.145 38.145 0 0 1-14.651 9.162l-0.268 0.08c-3.921 14.953-6.587 23.94-9.398 32.863l1.616-5.947c-2.924 7.296-5.842 14.433-9.083 21.463-3.068 6.345-6.98 11.768-11.673 16.404l-0.006 0.006c-9.407 7.884-17.429 14.899-25.31 22.066l0.668-0.598a51.939 51.939 0 0 0-12.632 29.673l-0.014 0.197c-1.125 5.988-1.769 12.877-1.769 19.915 0 2.018 0.053 4.023 0.157 6.014l-0.012-0.279c0.822 9.563 3.247 18.37 7.01 26.427l-0.201-0.479c4.641 9.667 10.739 17.889 18.112 24.762l0.049 0.045a114.24 114.24 0 0 0 33.926 20.779l0.777 0.269c11.528 5.097 25.856 10.257 40.569 14.511l2.562 0.634c18.721 5.363 33.808 10.667 48.518 16.7l-3.114-1.13c14.988 5.879 27.937 13.249 39.631 22.18l-0.391-0.287c11.402 8.966 19.91 21.145 24.193 35.168l0.132 0.503c2.71 9.594 4.775 20.911 5.787 32.53l0.05 0.709a408.84 408.84 0 0 1 1.946 39.982 233.789 233.789 0 0 1-3.102 39.226l0.184-1.348c-1.075 9.997-3.951 19.112-8.302 27.324l0.197-0.408a46.392 46.392 0 0 1-22.4 11.723l-0.302 0.053c-11.901 3.868-27.265 7.795-42.928 10.891l-2.794 0.46c-18.488 3.635-38.589 6.871-61.297 9.728-14.238 2.056-37.415 4.598-60.723 6.683l-6.727 0.485c-14.674 1.452-37.344 3.109-60.114 4.395l-5.396 0.243c-20.756 1.132-38.917 1.684-54.159 1.684s-33.08-0.553-53.509-1.684c-20.434-1.137-41.19-2.662-62.915-4.639-31.836-2.813-54.018-5.205-76.107-7.897l11.569 1.149c-27.055-3.087-46.999-5.897-66.809-9.103l8.436 1.126c-17.51-2.79-32.108-5.612-44.431-8.433-8.551-1.293-16.214-4.262-22.935-8.572l0.233 0.14C363.602 963.776 359 949.612 359 934.372l0.001-0.326v0.017c-0.942-9.409-1.479-20.337-1.479-31.389 0-20.435 1.837-40.44 5.354-59.861l-0.306 2.034c1.441-18.96 10.136-35.648 23.283-47.488l0.064-0.057c12.833-10.74 27.771-19.52 44.026-25.599l1.05-0.344c13.407-5.344 31.222-11.237 49.392-16.275l4.118-0.974a165.692 165.692 0 0 0 48.973-21.893c9.668-6.003 17.987-12.97 25.21-20.949l0.088-0.099a68.956 68.956 0 0 0 12.478-19.746l0.168-0.458a52.195 52.195 0 0 0 4.219-21.048 349.706 349.706 0 0 0-1.047-25.607l0.074 1.184c-0.38-11.917-5.121-22.658-12.672-30.742l0.025 0.027a439.27 439.27 0 0 0-24.125-22.71l-0.518-0.443a51.975 51.975 0 0 1-10.899-16.073l-0.129-0.337a1570.088 1570.088 0 0 1-8.755-21.463c-1.188-2.95-3.854-11.937-6.373-20.986l-1.409-5.93c-4.226-1.393-7.888-3.402-11.095-5.958l0.071 0.055a66.497 66.497 0 0 1-10.236-11.555l-0.142-0.216c-4.136-6.281-7.374-13.588-9.304-21.409l-0.101-0.484c-2.401-6.181-3.792-13.334-3.792-20.813 0-1.806 0.081-3.593 0.24-5.358l-0.017 0.228c0.605-7.421 2.103-14.289 4.395-20.782l-0.177 0.574c2.499-6.81 6.018-12.677 10.435-17.741l-0.057 0.066a407.76 407.76 0 0 1-0.135-10.689c0-18.776 1.227-37.265 3.605-55.392l-0.229 2.132c2.646-22.045 6.631-41.726 12.024-60.817l-0.668 2.767c5.565-21.118 14.135-39.631 25.375-56.184l-0.405 0.632c9.338-14.836 20.528-27.481 33.457-38.085l0.274-0.218c10.969-8.939 23.458-16.687 36.882-22.725l1.062-0.427c11.257-5.076 24.342-9.032 38.014-11.231l0.903-0.12c11.287-1.846 24.317-2.917 37.59-2.949h0.032v0.143z m0 0" p-id="36588" fill="#808080"></path></svg>