<?xml version="1.0" standalone="no"?><!DOCTYPE svg PUBLIC "-//W3C//DTD SVG 1.1//EN" "http://www.w3.org/Graphics/SVG/1.1/DTD/svg11.dtd"><svg t="1585494380763" class="icon" viewBox="0 0 1024 1024" version="1.1" xmlns="http://www.w3.org/2000/svg" p-id="39541" xmlns:xlink="http://www.w3.org/1999/xlink" width="16" height="16"><defs><style type="text/css"></style></defs><path d="M181.76 905.216c0 35.84 50.176 48.64 150.016 56.32 57.856 4.608 113.152 5.632 192 5.632s134.144-1.024 192-5.632c99.328-7.68 150.016-20.48 150.016-56.32 0-76.8-128.512-147.456-268.8-175.104l13.824 15.872-5.632-74.24-11.776 17.92c49.664-16.384 78.336-50.688 101.376-110.592l-11.776 10.752c22.528-6.144 42.496-20.992 55.808-41.984 26.112-41.984 17.408-95.744-20.992-119.808-3.584-2.048-7.168-4.096-11.264-5.632l-6.656 16.384h17.408c0-76.288-11.264-124.416-40.96-157.696l-12.8 11.776 7.68 15.872c22.528-10.752 35.84-26.112 22.016-45.568-6.656-9.216-16.896-17.408-29.696-25.088-6.656-4.096-13.824-7.68-21.504-10.752-4.096-2.048-7.68-3.584-9.728-4.096l8.192 26.112c1.024-1.536 2.048-3.584 3.584-6.144 2.56-5.632 3.584-11.264 3.072-17.408-2.048-17.92-17.92-27.136-41.984-27.136-23.552 0-51.712 13.824-82.944 36.352l10.24 14.336 0.512-17.408h-14.848c-148.992 0-199.168 55.296-199.68 204.8h17.408l-5.632-16.384c-5.12 1.536-9.728 4.096-14.336 6.656-38.4 24.064-47.104 77.824-20.992 119.808 13.824 21.504 34.304 36.864 57.856 42.496L340.48 578.56c26.112 68.608 50.688 98.816 103.424 112.64l-13.312-17.408-2.56 74.24 14.336-16.384c-138.24 25.088-260.608 94.72-260.608 173.568zM866.304 97.28h-83.968c-7.168 0-14.336 2.56-19.968 8.192s-8.192 12.8-8.192 19.968 2.56 14.336 8.192 19.968 12.8 8.192 19.968 8.192h83.968v83.968c0 7.168 2.56 14.336 8.192 19.968s12.8 8.192 19.968 8.192 14.336-2.56 19.968-8.192 8.192-12.8 8.192-19.968v-84.48c0-30.72-25.088-55.808-56.32-55.808zM166.4 265.216c7.168 0 14.336-2.56 19.968-8.192s8.192-12.8 8.192-19.968v-83.968h83.968c7.168 0 14.336-2.56 19.968-8.192s8.192-12.8 8.192-19.968-2.56-14.336-8.192-19.968-12.8-7.68-19.968-7.68H194.56c-30.72 0-55.808 25.088-55.808 55.808v83.968c0 7.168 2.56 14.336 8.192 19.968s12.288 8.192 19.456 8.192z" p-id="39542"></path><path d="M922.624 664.576v-83.968c0-7.168-2.56-14.336-8.192-19.968s-12.8-8.192-19.968-8.192-14.336 2.56-19.968 8.192-8.192 12.8-8.192 19.968v83.968h-83.968c-7.168 0-14.336 2.56-19.968 8.192s-8.192 12.8-8.192 19.968 2.56 14.336 8.192 19.968 12.8 8.192 19.968 8.192h83.968a56.158 56.158 0 0 0 56.32-56.32z m-775.68-103.424c-5.632 5.632-8.192 12.8-8.192 19.968v83.968c0 30.72 25.088 55.808 55.808 55.808h83.968c7.168 0 14.336-2.56 19.968-8.192s8.192-12.8 8.192-19.968-2.56-14.336-8.192-19.968-12.8-8.192-19.968-8.192H194.56v-83.968c0-7.168-2.56-14.336-8.192-19.968s-12.8-8.192-19.968-8.192c-7.168 0.512-14.336 3.072-19.456 8.704z" p-id="39543" fill="#ffffff"></path></svg>