<?xml version="1.0" standalone="no"?><!DOCTYPE svg PUBLIC "-//W3C//DTD SVG 1.1//EN" "http://www.w3.org/Graphics/SVG/1.1/DTD/svg11.dtd"><svg t="1585494489017" class="icon" viewBox="0 0 1025 1024" version="1.1" xmlns="http://www.w3.org/2000/svg" p-id="47890" xmlns:xlink="http://www.w3.org/1999/xlink" width="16.015625" height="16"><defs><style type="text/css"></style></defs><path d="M929.792 200.704H820.736V76.8c0-29.696-24.064-53.76-53.76-53.76s-53.76 24.064-53.76 53.76v123.904h-399.36V76.8c0-29.696-24.064-53.76-53.76-53.76s-53.76 24.064-53.76 53.76v123.904H96.768c-52.736 0-95.744 43.008-95.744 95.744v603.648c0 52.736 43.008 95.744 95.744 95.744h833.024c52.736 0 95.744-43.008 95.744-95.744v-604.16c0-52.736-43.008-95.232-95.744-95.232z m-228.864 337.92L509.952 729.6c-9.728 9.728-22.528 14.848-36.352 14.848s-26.624-5.632-36.352-14.848L326.144 618.496c-19.968-19.968-19.968-52.224 0-72.192 19.968-19.968 52.224-19.968 72.192 0l74.752 74.752L628.224 465.92c19.968-19.968 52.224-19.968 72.192 0s20.48 52.736 0.512 72.704z" p-id="47891" fill="#ffffff"></path></svg>