<?xml version="1.0" standalone="no"?><!DOCTYPE svg PUBLIC "-//W3C//DTD SVG 1.1//EN" "http://www.w3.org/Graphics/SVG/1.1/DTD/svg11.dtd"><svg t="1585494047561" class="icon" viewBox="0 0 1024 1024" version="1.1" xmlns="http://www.w3.org/2000/svg" p-id="17876" xmlns:xlink="http://www.w3.org/1999/xlink" width="16" height="16"><defs><style type="text/css"></style></defs><path d="M460.197647 8.673882a60.235294 60.235294 0 0 0-52.404706 17.347765 240.037647 240.037647 0 0 0-51.802353 8.673882c-60.837647 8.673882-78.305882 78.305882-86.738823 112.820706V295.152941c8.432941 17.347765-9.035294 17.347765-9.035294 17.347765-34.334118 0-17.468235 104.146824-17.468236 104.146823a61.379765 61.379765 0 0 0 52.404706 60.777412 217.268706 217.268706 0 0 0 86.738824 104.086588v78.305883c-9.035294 0 17.468235 78.305882-139.14353 104.146823s-190.945882 78.305882-216.847059 104.146824S0 1024 0 1024h1024s-8.432941-130.168471-34.936471-156.190118-60.235294-78.305882-225.28-104.146823c-156.611765-26.021647-130.108235-104.146824-130.108235-112.820706s8.432941-60.777412 8.432941-60.777412a297.682824 297.682824 0 0 0 78.305883-112.76047 130.108235 130.108235 0 0 0 60.837647-52.10353s8.432941-104.146824-26.50353-104.146823c0 0-16.865882 0-8.432941-26.021647a671.322353 671.322353 0 0 0 0-130.168471c0-26.021647 8.432941-104.146824-51.802353-112.820706a128.240941 128.240941 0 0 0-60.837647 0C616.207059 52.043294 590.305882 0 555.369412 0L460.197647 8.673882z" fill="#ffffff" p-id="17877"></path></svg>