<?xml version="1.0" standalone="no"?><!DOCTYPE svg PUBLIC "-//W3C//DTD SVG 1.1//EN" "http://www.w3.org/Graphics/SVG/1.1/DTD/svg11.dtd"><svg t="1585493862775" class="icon" viewBox="0 0 1024 1024" version="1.1" xmlns="http://www.w3.org/2000/svg" p-id="2274" xmlns:xlink="http://www.w3.org/1999/xlink" width="16" height="16"><defs><style type="text/css"></style></defs><path d="M298.666 112v160c0 26.51-21.49 48-48 48H48c-26.51 0-48-21.49-48-48V112c0-26.51 21.49-48 48-48h202.666c26.51 0 48 21.49 48 48z m362.668 480v-160c0-26.51-21.49-48-48-48H410.666c-26.51 0-48 21.49-48 48v160c0 26.51 21.49 48 48 48h202.666c26.512 0 48.002-21.49 48.002-48z m64-480v160c0 26.51 21.49 48 48 48H976c26.51 0 48-21.49 48-48V112c0-26.51-21.49-48-48-48H773.334c-26.51 0-48 21.49-48 48z m-64 160V112c0-26.51-21.49-48-48-48H410.666c-26.51 0-48 21.49-48 48v160c0 26.51 21.49 48 48 48h202.666c26.512 0 48.002-21.49 48.002-48z m-410.668 112H48c-26.51 0-48 21.49-48 48v160c0 26.51 21.49 48 48 48h202.666c26.51 0 48-21.49 48-48v-160c0-26.51-21.49-48-48-48zM0 752v160c0 26.51 21.49 48 48 48h202.666c26.51 0 48-21.49 48-48v-160c0-26.51-21.49-48-48-48H48c-26.51 0-48 21.49-48 48z m773.334-112H976c26.51 0 48-21.49 48-48v-160c0-26.51-21.49-48-48-48H773.334c-26.51 0-48 21.49-48 48v160c0 26.51 21.49 48 48 48z m0 320H976c26.51 0 48-21.49 48-48v-160c0-26.51-21.49-48-48-48H773.334c-26.51 0-48 21.49-48 48v160c0 26.51 21.49 48 48 48zM362.666 752v160c0 26.51 21.49 48 48 48h202.666c26.51 0 48-21.49 48-48v-160c0-26.51-21.49-48-48-48H410.666c-26.51 0-48 21.49-48 48z" fill="" p-id="2275" fill="#ffffff"></path></svg>