<?xml version="1.0" standalone="no"?><!DOCTYPE svg PUBLIC "-//W3C//DTD SVG 1.1//EN" "http://www.w3.org/Graphics/SVG/1.1/DTD/svg11.dtd"><svg t="1585494243167" class="icon" viewBox="0 0 1024 1024" version="1.1" xmlns="http://www.w3.org/2000/svg" p-id="31685" xmlns:xlink="http://www.w3.org/1999/xlink" width="16" height="16"><defs><style type="text/css"></style></defs><path d="M810.666667 853.333333c25.6 0 42.666667 17.066667 42.666666 42.666667s-17.066667 42.666667-42.666666 42.666667H256c-25.6 0-42.666667-17.066667-42.666667-42.666667s17.066667-42.666667 42.666667-42.666667h554.666667z m170.666666-768c25.6 0 42.666667 17.066667 42.666667 42.666667v597.333333c0 25.6-17.066667 42.666667-42.666667 42.666667H42.666667c-25.6 0-42.666667-17.066667-42.666667-42.666667V128c0-25.6 17.066667-42.666667 42.666667-42.666667h938.666666zM550.4 384v174.933333c0 21.333333-17.066667 38.4-38.4 38.4s-38.4-17.066667-38.4-38.4V384L384 465.066667c-17.066667 12.8-38.4 12.8-51.2 0s-12.8-34.133333-4.266667-46.933334l4.266667-4.266666 153.6-136.533334c17.066667-12.8 42.666667-12.8 55.466667 0l153.6 136.533334c12.8 12.8 12.8 34.133333 4.266666 46.933333l-4.266666 4.266667c-17.066667 12.8-38.4 12.8-51.2 0L550.4 384z" p-id="31686" fill="#ffffff"></path></svg>