<?xml version="1.0" standalone="no"?><!DOCTYPE svg PUBLIC "-//W3C//DTD SVG 1.1//EN" "http://www.w3.org/Graphics/SVG/1.1/DTD/svg11.dtd"><svg t="1585494581499" class="icon" viewBox="0 0 1024 1024" version="1.1" xmlns="http://www.w3.org/2000/svg" p-id="54204" xmlns:xlink="http://www.w3.org/1999/xlink" width="16" height="16"><defs><style type="text/css"></style></defs><path d="M512 78.769231C250.092308 78.769231 41.353846 271.753846 41.353846 510.030769c0 74.830769 21.661538 145.723077 57.107692 208.738462 5.907692 9.846154 7.876923 21.661538 3.938462 33.476923l-61.046154 167.384615c-5.907692 15.753846 9.846154 29.538462 25.6 25.6l169.353846-64.984615c9.846154-3.938462 21.661538-1.969231 33.476923 3.938461 70.892308 39.384615 155.569231 63.015385 246.153847 63.015385C773.907692 945.230769 984.615385 752.246154 984.615385 513.969231 982.646154 271.753846 771.938462 78.769231 512 78.769231z m-189.046154 504.123077c-5.907692 9.846154-11.815385 19.692308-19.692308 25.6s-17.723077 11.815385-29.538461 15.753846c-9.846154 3.938462-21.661538 3.938462-33.476923 3.938461-15.753846 0-29.538462-1.969231-43.323077-7.876923-13.784615-5.907692-27.569231-13.784615-37.415385-25.6l-3.938461-3.938461c-1.969231-1.969231 0-5.907692 3.938461-9.846154L191.015385 551.384615c3.938462-3.938462 7.876923-3.938462 9.846153-1.96923s3.938462 5.907692 3.938462 5.907692c3.938462 5.907692 9.846154 9.846154 15.753846 13.784615 9.846154 5.907692 19.692308 5.907692 31.507692 3.938462 3.938462 0 5.907692-1.969231 9.846154-3.938462l5.907693-5.907692c1.969231-1.969231 1.969231-5.907692 1.96923-7.876923 0-7.876923-1.969231-9.846154-3.938461-11.815385-3.938462-3.938462-9.846154-7.876923-17.723077-9.846154s-15.753846-5.907692-25.6-7.876923c-9.846154-3.938462-19.692308-7.876923-27.569231-11.815384-9.846154-5.907692-15.753846-13.784615-21.661538-21.661539-5.907692-9.846154-9.846154-21.661538-9.846154-37.415384 0-13.784615 1.969231-25.6 7.876923-35.446154 5.907692-9.846154 11.815385-17.723077 21.661538-23.630769 7.876923-5.907692 17.723077-11.815385 29.538462-13.784616 23.630769-5.907692 47.261538-5.907692 70.892308 1.969231 11.815385 3.938462 23.630769 11.815385 29.538461 15.753846l5.907692 3.938462c3.938462 1.969231 1.969231 7.876923-1.96923 11.815384l-29.538462 29.538462c-3.938462 3.938462-9.846154 3.938462-13.784615 0-3.938462-1.969231-5.907692-5.907692-7.876923-5.907692-9.846154-5.907692-23.630769-7.876923-35.446154-5.907693-3.938462 0-5.907692 1.969231-7.876923 3.938462l-5.907693 5.907692c-1.969231 1.969231-1.969231 3.938462-1.96923 7.876923 0 5.907692 1.969231 7.876923 3.938461 9.846154 3.938462 3.938462 9.846154 5.907692 17.723077 9.846154 7.876923 1.969231 15.753846 5.907692 25.6 7.876923 9.846154 3.938462 19.692308 7.876923 27.569231 11.815385 9.846154 5.907692 15.753846 13.784615 21.661538 21.661538 5.907692 9.846154 9.846154 21.661538 9.846154 37.415385 0 11.815385-1.969231 23.630769-7.876923 33.476923zM649.846154 610.461538c0 11.815385-9.846154 19.692308-21.661539 19.692308h-19.692307c-11.815385 0-17.723077-7.876923-17.723077-19.692308v-116.184615c0-11.815385-15.753846-13.784615-19.692308-3.938461l-33.476923 88.615384c-1.969231 7.876923-9.846154 11.815385-17.723077 11.815385h-13.784615c-7.876923 0-15.753846-5.907692-17.723077-11.815385L452.923077 490.338462c-3.938462-9.846154-19.692308-7.876923-19.692308 3.938461V610.461538c0 11.815385-9.846154 19.692308-21.661538 19.692308h-19.692308c-11.815385 0-17.723077-7.876923-17.723077-19.692308V393.846154c0-11.815385 7.876923-19.692308 17.723077-19.692308h51.2c7.876923 0 15.753846 5.907692 17.723077 11.815385l39.384615 102.4c3.938462 7.876923 15.753846 7.876923 17.723077 0l39.384616-102.4c1.969231-7.876923 9.846154-11.815385 17.723077-11.815385h53.16923c11.815385 0 21.661538 7.876923 21.661539 19.692308v216.615384z m206.769231-25.6c-5.907692 9.846154-11.815385 19.692308-21.661539 25.6-7.876923 5.907692-17.723077 11.815385-29.538461 15.753847s-21.661538 3.938462-33.476923 3.938461c-15.753846 0-29.538462-1.969231-43.323077-7.876923-13.784615-5.907692-27.569231-13.784615-37.415385-25.6l-3.938462-3.938461c-1.969231-1.969231 0-5.907692 3.938462-9.846154l31.507692-29.538462c3.938462-3.938462 7.876923-3.938462 9.846154-1.969231s3.938462 5.907692 3.938462 5.907693c3.938462 5.907692 9.846154 9.846154 15.753846 13.784615 9.846154 5.907692 21.661538 5.907692 31.507692 3.938462 3.938462-1.969231 7.876923-1.969231 9.846154-3.938462l5.907692-5.907692s1.969231-5.907692 1.969231-7.876923c0-7.876923-1.969231-9.846154-3.938461-11.815385-3.938462-3.938462-9.846154-7.876923-17.723077-9.846154s-15.753846-5.907692-25.6-7.876923c-9.846154-3.938462-19.692308-7.876923-27.569231-11.815384-9.846154-5.907692-17.723077-13.784615-23.630769-21.661539-5.907692-9.846154-9.846154-21.661538-9.846154-37.415385 0-13.784615 1.969231-25.6 7.876923-35.446153 5.907692-9.846154 11.815385-17.723077 21.661538-23.63077 7.876923-5.907692 19.692308-11.815385 29.538462-13.784615 23.630769-5.907692 47.261538-5.907692 70.892308 1.969231 11.815385 3.938462 23.630769 11.815385 29.538461 17.723077l5.907692 5.907692c3.938462 1.969231 1.969231 7.876923-1.96923 11.815385L827.076923 450.953846c-3.938462 3.938462-9.846154 3.938462-13.784615 0-3.938462-1.969231-5.907692-5.907692-7.876923-5.907692-9.846154-5.907692-23.630769-7.876923-35.446154-5.907692-3.938462 0-5.907692 1.969231-7.876923 3.938461l-5.907693 5.907692c-1.969231 1.969231-1.969231 5.907692-1.96923 7.876923 0 5.907692 1.969231 7.876923 3.938461 9.846154 3.938462 3.938462 9.846154 5.907692 17.723077 9.846154 7.876923 1.969231 15.753846 5.907692 25.6 7.876923 9.846154 3.938462 19.692308 7.876923 27.569231 11.815385 9.846154 5.907692 15.753846 13.784615 23.630769 21.661538 5.907692 9.846154 9.846154 21.661538 9.846154 37.415385 1.969231 5.907692 0 19.692308-5.907692 29.538461z" p-id="54205" fill="#ffffff"></path></svg>