<?xml version="1.0" standalone="no"?><!DOCTYPE svg PUBLIC "-//W3C//DTD SVG 1.1//EN" "http://www.w3.org/Graphics/SVG/1.1/DTD/svg11.dtd"><svg t="1585494626278" class="icon" viewBox="0 0 1024 1024" version="1.1" xmlns="http://www.w3.org/2000/svg" p-id="55713" xmlns:xlink="http://www.w3.org/1999/xlink" width="16" height="16"><defs><style type="text/css"></style></defs><path d="M914.6368 478.1568c-3.2256-17.7664-20.3264-35.84-38.0416-39.7824l-13.312-3.072a131.8912 131.8912 0 0 1-90.4192-157.3376l4.1472-12.4416c5.2736-17.2544-1.5872-41.0624-15.5136-52.8896 0 0-12.4416-10.5472-47.616-30.8224-35.1744-20.1216-50.3296-25.7024-50.3296-25.7024-17.1008-6.2464-41.1136-0.3584-53.5552 12.9024l-9.2672 9.9328a131.2256 131.2256 0 0 1-90.624 35.9424 131.584 131.584 0 0 1-90.9312-36.2496L410.2144 168.96c-12.288-13.2608-36.4544-19.1488-53.5552-12.9024 0 0-15.36 5.5808-50.4832 25.7024-35.1744 20.48-47.4624 30.976-47.4624 30.976-13.9264 11.6736-20.7872 35.328-15.5136 52.736l3.84 12.5952a132.1472 132.1472 0 0 1-90.9312 157.3888l-12.8 2.8672c-17.5616 3.9936-34.816 21.8624-38.0416 39.7824 0 0-2.8672 15.9744-2.8672 56.5248 0 40.6016 2.8672 56.576 2.8672 56.576 3.2256 17.92 20.3264 35.7888 38.0416 39.7824l12.4928 2.8672a131.3792 131.3792 0 0 1 77.0048 60.7232c17.6128 30.464 21.76 65.1776 14.08 96.9216l-3.6864 12.288c-5.2736 17.3056 1.5872 41.1136 15.5136 52.8896 0 0 12.4416 10.5472 47.616 30.8736 35.1744 20.2752 50.3808 25.7024 50.3808 25.7024 17.1008 6.2464 41.0624 0.3072 53.504-12.9536l8.8064-9.4208a131.9424 131.9424 0 0 1 91.136-36.2496c35.328 0 67.3792 13.8752 91.0848 36.4032l8.7552 9.4208c12.288 13.312 36.4544 19.2 53.5552 12.9536 0 0 15.36-5.632 50.4832-25.7024 35.1744-20.3264 47.4624-30.8224 47.4624-30.8224 13.9264-11.6736 20.7872-35.4816 15.5136-52.8896l-3.84-12.8a131.9424 131.9424 0 0 1 91.136-157.184l12.4416-2.8672c17.6128-3.9936 34.816-21.9136 38.0416-39.7824 0 0 2.8672-15.9744 2.8672-56.576-0.1536-40.704-3.072-56.6784-3.072-56.6784z m-404.48 218.9824a162.4064 162.4064 0 0 1 0-324.7616 162.56 162.56 0 0 1 162.5088 162.4576 162.6112 162.6112 0 0 1-162.56 162.304z" fill="#ffffff" p-id="55714"></path></svg>