<?xml version="1.0" standalone="no"?><!DOCTYPE svg PUBLIC "-//W3C//DTD SVG 1.1//EN" "http://www.w3.org/Graphics/SVG/1.1/DTD/svg11.dtd"><svg t="1585494076318" class="icon" viewBox="0 0 1280 1024" version="1.1" xmlns="http://www.w3.org/2000/svg" p-id="20018" xmlns:xlink="http://www.w3.org/1999/xlink" width="20" height="16"><defs><style type="text/css"></style></defs><path d="M256 704H64c-35.34 0-64 28.66-64 64v192c0 35.34 28.66 64 64 64h192c35.34 0 64-28.66 64-64v-192c0-35.34-28.66-64-64-64z m-48-160h384v96h96v-96h384v96h96v-115.18c0-42.34-34.46-76.82-76.82-76.82H688v-128h80c35.34 0 64-28.66 64-64V64c0-35.34-28.66-64-64-64H512c-35.34 0-64 28.66-64 64v192c0 35.34 28.66 64 64 64h80v128H188.82C146.46 448 112 482.46 112 524.82V640h96v-96z m528 160h-192c-35.34 0-64 28.66-64 64v192c0 35.34 28.66 64 64 64h192c35.34 0 64-28.66 64-64v-192c0-35.34-28.66-64-64-64z m480 0h-192c-35.34 0-64 28.66-64 64v192c0 35.34 28.66 64 64 64h192c35.34 0 64-28.66 64-64v-192c0-35.34-28.66-64-64-64z" p-id="20019" fill="#ffffff"></path></svg>