<?xml version="1.0" encoding="utf-8"?>
<!-- Generator: Adobe Illustrator 17.0.0, SVG Export Plug-In . SVG Version: 6.00 Build 0)  -->
<!DOCTYPE svg PUBLIC "-//W3C//DTD SVG 1.1//EN" "http://www.w3.org/Graphics/SVG/1.1/DTD/svg11.dtd" [
	<!ENTITY ns_extend "http://ns.adobe.com/Extensibility/1.0/">
	<!ENTITY ns_ai "http://ns.adobe.com/AdobeIllustrator/10.0/">
	<!ENTITY ns_graphs "http://ns.adobe.com/Graphs/1.0/">
	<!ENTITY ns_vars "http://ns.adobe.com/Variables/1.0/">
	<!ENTITY ns_imrep "http://ns.adobe.com/ImageReplacement/1.0/">
	<!ENTITY ns_sfw "http://ns.adobe.com/SaveForWeb/1.0/">
	<!ENTITY ns_custom "http://ns.adobe.com/GenericCustomNamespace/1.0/">
	<!ENTITY ns_adobe_xpath "http://ns.adobe.com/XPath/1.0/">
]>
<svg version="1.1" id="图层_1" xmlns:x="&ns_extend;" xmlns:i="&ns_ai;" xmlns:graph="&ns_graphs;"
	 xmlns="http://www.w3.org/2000/svg" xmlns:xlink="http://www.w3.org/1999/xlink" x="0px" y="0px" width="40px" height="40px"
	 viewBox="0 0 40 40" enable-background="new 0 0 40 40" xml:space="preserve">
<metadata>
	<sfw  xmlns="&ns_sfw;">
		<slices></slices>
		<sliceSourceBounds  width="40" height="40" bottomLeftOrigin="true" x="107.5" y="56.5"></sliceSourceBounds>
	</sfw>
</metadata>
<circle fill="#FFCE00" cx="20" cy="20" r="20"/>
<g>
	<polygon points="32.394,14.88 32.394,12.779 30.361,12.779 30.361,14.88 28.261,14.88 28.261,16.91 30.361,16.91 30.361,19.011 
		32.394,19.011 32.394,16.91 34.493,16.91 34.493,14.88 	"/>
	<polygon points="24.232,19.717 25.885,19.717 25.885,18.115 27.487,18.115 27.487,16.462 25.885,16.462 25.885,14.862 
		24.232,14.862 24.232,16.462 22.63,16.462 22.63,18.115 24.232,18.115 	"/>
	<path d="M29.896,22.323c-0.148-0.194-0.359-0.367-0.63-0.521c-0.254-0.134-0.588-0.203-0.986-0.22
		c-0.034-0.001-0.059-0.009-0.094-0.01c-0.034,0.001-0.059,0.008-0.091,0.01h-1.012h-3.216h-3.34h-0.284v-7.977h-2.986l-4.347,6.562
		l-4.427-6.562H5.507v11.147H8.76v-5.75l2.821,4.221h2.576l2.834-4.238v2.597v1.168v1.994v0.008h3.252v-0.008h1.876h0.553h3.2h0.946
		H27h0.394v0.017c-0.007,0.386-0.079,0.713-0.197,1.002c-0.102,0.248-0.235,0.47-0.42,0.651c-0.109,0.103-0.251,0.155-0.378,0.23
		c-0.356,0.212-0.76,0.353-1.265,0.353c-0.363-0.012-0.716-0.118-1.07-0.319c-0.357-0.186-0.667-0.403-0.943-0.67l-0.248-0.239
		l-2.387,1.963l0.254,0.301c1.181,1.389,2.635,2.111,4.319,2.145h0.009c1.463,0,2.741-0.471,3.795-1.401
		c0.761-0.663,1.251-1.597,1.479-2.779c0.006-0.019,0.023-0.03,0.028-0.049c0.079-0.281,0.118-0.696,0.127-1.203h0.008v-0.198
		c0-0.613-0.044-1.082-0.135-1.411C30.279,22.814,30.12,22.543,29.896,22.323z"/>
</g>
</svg>
